<?xml version="1.0" encoding="UTF-8" standalone="no"?>
<!-- Created with Inkscape (http://www.inkscape.org/) -->

<svg
   xmlns:dc="http://purl.org/dc/elements/1.1/"
   xmlns:cc="http://creativecommons.org/ns#"
   xmlns:rdf="http://www.w3.org/1999/02/22-rdf-syntax-ns#"
   xmlns:svg="http://www.w3.org/2000/svg"
   xmlns="http://www.w3.org/2000/svg"
   xmlns:sodipodi="http://sodipodi.sourceforge.net/DTD/sodipodi-0.dtd"
   xmlns:inkscape="http://www.inkscape.org/namespaces/inkscape"
   id="svg2"
   version="1.1"
   inkscape:version="0.91 r13725"
   width="800"
   height="600"
   viewBox="0 0 800 600"
   sodipodi:docname="tweet.svg">
  <metadata
     id="metadata8">
    <rdf:RDF>
      <cc:Work
         rdf:about="">
        <dc:format>image/svg+xml</dc:format>
        <dc:type
           rdf:resource="http://purl.org/dc/dcmitype/StillImage" />
        <dc:title></dc:title>
      </cc:Work>
    </rdf:RDF>
  </metadata>
  <defs
     id="defs6" />
  <sodipodi:namedview
     pagecolor="#ffffff"
     bordercolor="#666666"
     borderopacity="1"
     objecttolerance="10"
     gridtolerance="10"
     guidetolerance="10"
     inkscape:pageopacity="0"
     inkscape:pageshadow="2"
     inkscape:window-width="1280"
     inkscape:window-height="962"
     id="namedview4"
     showgrid="false"
     inkscape:zoom="1.0208854"
     inkscape:cx="304.31731"
     inkscape:cy="296.65969"
     inkscape:window-x="-8"
     inkscape:window-y="-8"
     inkscape:window-maximized="1"
     inkscape:current-layer="svg2"
     inkscape:snap-page="true" />
  <path
     style="fill:#000000"
     d="m 575.89696,164.68134 c -26.36828,-0.30081 -52.53802,8.74726 -76.98275,26.77107 -19.48126,14.3641 -36.27791,31.41185 -65.22674,66.19709 l -12.46629,14.97855 -13.83623,-16.62613 c -15.84502,-19.04033 -24.65549,-29.05248 -34.01179,-38.65145 -29.69058,-30.46067 -54.9376,-46.01651 -83.4358,-51.40618 -8.07618,-1.52739 -25.13524,-1.36474 -34.4617,0.32739 -19.17906,3.47969 -37.32346,11.79773 -52.35228,24.00161 -35.90628,29.15706 -56.40878,77.49239 -54.97216,129.6034 1.14166,41.41112 13.02419,76.86979 34.54638,103.0945 9.24884,11.26968 17.81804,18.70139 29.92588,25.95394 14.01592,8.39551 28.20154,13.00587 45.5719,14.81088 4.57822,0.47572 21.85295,-0.19165 27.20741,-1.05137 26.73205,-4.29213 51.87269,-17.75964 77.54137,-41.53936 13.0081,-12.05083 24.78985,-24.90459 44.66574,-48.72854 l 13.60245,-16.3054 13.37748,16.07782 c 16.20835,19.48058 25.60689,30.14893 34.9154,39.63229 29.85515,30.4159 54.64697,45.63924 82.98209,50.95237 6.56608,1.23119 24.17702,1.38056 31.28828,0.26616 20.64408,-3.23514 39.53472,-11.60104 55.53833,-24.5965 26.64036,-21.63282 45.26906,-54.48589 52.12606,-91.93145 2.22228,-12.13569 2.66645,-17.42589 2.70457,-32.14898 0.0363,-14.02491 -0.38485,-20.5896 -2.02716,-31.58738 -9.18788,-61.52701 -44.72586,-105.21878 -94.0569,-115.63496 -7.38077,-1.55843 -14.78041,-2.37515 -22.16354,-2.45937 z m -302.96298,60.70339 c 16.17585,-0.1572 33.01287,6.09831 49.53902,18.72883 13.7974,10.54501 22.27997,19.33885 48.25372,50.0301 l 17.07794,20.17946 -3.99113,5.25813 c -5.89774,7.77022 -22.92277,28.01408 -29.93852,35.59851 -25.83647,27.93075 -46.56495,41.88394 -69.60586,46.85473 -4.90258,1.05765 -17.26755,1.51218 -21.99164,0.80781 -11.52085,-1.71779 -23.00676,-6.88537 -32.14766,-14.46351 -4.7602,-3.94637 -13.29294,-14.46379 -16.71269,-20.59868 -7.59628,-13.62739 -11.64679,-28.19358 -12.81761,-46.09481 -1.33687,-20.43978 3.08923,-40.52461 12.75695,-57.88069 3.90983,-7.01919 13.35266,-18.46731 18.97366,-23.00349 12.57354,-10.14695 26.33104,-15.2777 40.60382,-15.41639 z m 299.6657,0.0466 c 18.79541,0.15773 35.40538,8.42333 48.39399,24.13602 12.47698,15.09365 19.17854,33.45181 20.8302,57.06223 1.42308,20.34241 -3.08122,40.92504 -12.75566,58.29325 -3.90987,7.01918 -13.35143,18.46597 -18.9724,23.00215 -10.46165,8.44262 -21.36901,13.33664 -33.21687,14.90403 -24.33338,3.21915 -49.0114,-8.05916 -75.17801,-34.35818 -7.09769,-7.1336 -12.81677,-13.59501 -29.99918,-33.8977 l -17.07541,-20.1768 4.44105,-5.80643 c 6.1984,-8.1039 22.21346,-27.16243 29.25732,-34.81731 29.64035,-32.21151 54.29004,-46.99363 80.48731,-48.26541 1.27204,-0.0618 2.53463,-0.0864 3.78766,-0.0759 z"
     id="path3379"
     inkscape:connector-curvature="0" />
  <circle
     style="fill:#241c1c"
     id="path3357"
     cx="423.38721"
     cy="315.91791"
     r="45" />
  <circle
     style="fill:#ffb380"
     id="path3359"
     cx="327.5"
     cy="212.5"
     r="27.5" />
  <circle
     style="fill:#d40000"
     id="path3359-9"
     cx="327.5"
     cy="414.5"
     r="27.5" />
  <circle
     style="fill:#445500"
     id="path3359-9-6"
     cx="227.1675"
     cy="209.5"
     r="27.5" />
  <circle
     style="fill:#00aad4"
     id="path3359-9-6-3"
     cx="234.01509"
     cy="425.5"
     r="27.5" />
  <circle
     style="fill:#ff5555"
     id="path3359-9-6-3-8"
     cx="175.5"
     cy="315.91791"
     r="27.5" />
  <circle
     style="fill:#88aa00"
     id="path3359-9-6-3-8-8"
     cx="512.5"
     cy="216.5"
     r="27.5" />
  <circle
     style="fill:#800080"
     id="path3359-9-6-3-8-8-0"
     cx="625.5"
     cy="213.5"
     r="27.5" />
  <circle
     style="fill:#ac9d93"
     id="path3359-9-6-3-8-8-0-4"
     cx="512.5"
     cy="412.5"
     r="27.5" />
  <circle
     style="fill:#502d16"
     id="path3359-9-6-3-8-8-0-4-8"
     cx="627.5"
     cy="411.5"
     r="27.5" />
  <ellipse
     style="fill:#ffcc00"
     id="path3359-9-6-3-8-8-0-4-8-9"
     cx="666.96014"
     cy="323.418"
     r="27.5" />
  <text
     xml:space="preserve"
     style="font-style:normal;font-variant:normal;font-weight:normal;font-stretch:normal;font-size:25px;line-height:125%;font-family:'Segoe Script';-inkscape-font-specification:'Segoe Script';letter-spacing:0px;word-spacing:0px;fill:#ffffff;fill-opacity:1;stroke:none;stroke-width:1px;stroke-linecap:butt;stroke-linejoin:miter;stroke-opacity:1"
     x="390.6301"
     y="324.73993"
     id="text3502"
     sodipodi:linespacing="125%"><tspan
       sodipodi:role="line"
       id="tspan3504"
       x="390.6301"
       y="324.73993">Film</tspan></text>
  <text
     xml:space="preserve"
     style="font-style:normal;font-weight:normal;font-size:12.5px;line-height:125%;font-family:sans-serif;letter-spacing:0px;word-spacing:0px;fill:#ffffff;fill-opacity:1;stroke:none;stroke-width:1px;stroke-linecap:butt;stroke-linejoin:miter;stroke-opacity:1"
     x="303.07678"
     y="418.96777"
     id="text3506"
     sodipodi:linespacing="125%"><tspan
       sodipodi:role="line"
       id="tspan3508"
       x="303.07678"
       y="418.96777">Horreur</tspan></text>
  <text
     xml:space="preserve"
     style="font-style:normal;font-weight:normal;font-size:12.5px;line-height:125%;font-family:sans-serif;letter-spacing:0px;word-spacing:0px;fill:#000000;fill-opacity:1;stroke:none;stroke-width:1px;stroke-linecap:butt;stroke-linejoin:miter;stroke-opacity:1"
     x="214.92329"
     y="430.16003"
     id="text3510"
     sodipodi:linespacing="125%"><tspan
       sodipodi:role="line"
       id="tspan3512"
       x="214.92329"
       y="430.16003">Action</tspan></text>
  <text
     xml:space="preserve"
     style="font-style:normal;font-weight:normal;font-size:11.25px;line-height:125%;font-family:sans-serif;letter-spacing:0px;word-spacing:0px;fill:#ffffff;fill-opacity:1;stroke:none;stroke-width:1px;stroke-linecap:butt;stroke-linejoin:miter;stroke-opacity:1"
     x="149.08887"
     y="319.9389"
     id="text3514"
     sodipodi:linespacing="125%"><tspan
       sodipodi:role="line"
       id="tspan3516"
       x="149.08887"
       y="319.9389">Romance</tspan></text>
  <text
     xml:space="preserve"
     style="font-style:normal;font-weight:normal;font-size:11.25px;line-height:125%;font-family:sans-serif;letter-spacing:0px;word-spacing:0px;fill:#000000;fill-opacity:1;stroke:none;stroke-width:1px;stroke-linecap:butt;stroke-linejoin:miter;stroke-opacity:1"
     x="202.11043"
     y="213.521"
     id="text3518"
     sodipodi:linespacing="125%"><tspan
       sodipodi:role="line"
       id="tspan3520"
       x="202.11043"
       y="213.521">Aventure</tspan></text>
  <text
     xml:space="preserve"
     style="font-style:normal;font-weight:normal;font-size:12.5px;line-height:125%;font-family:sans-serif;letter-spacing:0px;word-spacing:0px;fill:#ffffff;fill-opacity:1;stroke:none;stroke-width:1px;stroke-linecap:butt;stroke-linejoin:miter;stroke-opacity:1"
     x="306.06445"
     y="216.96777"
     id="text3522"
     sodipodi:linespacing="125%"><tspan
       sodipodi:role="line"
       id="tspan3524"
       x="306.06445"
       y="216.96777">Drame</tspan></text>
  <text
     xml:space="preserve"
     style="font-style:normal;font-weight:normal;font-size:12.5px;line-height:125%;font-family:sans-serif;letter-spacing:0px;word-spacing:0px;fill:#000000;fill-opacity:1;stroke:none;stroke-width:1px;stroke-linecap:butt;stroke-linejoin:miter;stroke-opacity:1"
     x="490.53955"
     y="221.16003"
     id="text3526"
     sodipodi:linespacing="125%"><tspan
       sodipodi:role="line"
       id="tspan3528"
       x="490.53955"
       y="221.16003">Thriller</tspan></text>
  <text
     xml:space="preserve"
     style="font-style:normal;font-weight:normal;font-size:12.5px;line-height:125%;font-family:sans-serif;letter-spacing:0px;word-spacing:0px;fill:#e3e2db;fill-opacity:1;stroke:none;stroke-width:1px;stroke-linecap:butt;stroke-linejoin:miter;stroke-opacity:1"
     x="607.31598"
     y="210.9173"
     id="text3530"
     sodipodi:linespacing="125%"><tspan
       sodipodi:role="line"
       id="tspan3532"
       x="607.31598"
       y="210.9173">F<tspan
   style="font-size:12.5px;fill:#e3e2db"
   id="tspan3550">antas</tspan></tspan><tspan
       sodipodi:role="line"
       x="607.31598"
       y="226.5423"
       id="tspan3548"
       style="font-size:12.5px;fill:#e3e2db">tique</tspan></text>
  <text
     xml:space="preserve"
     style="font-style:normal;font-weight:normal;font-size:10px;line-height:125%;font-family:sans-serif;letter-spacing:0px;word-spacing:0px;fill:#000000;fill-opacity:1;stroke:none;stroke-width:1px;stroke-linecap:butt;stroke-linejoin:miter;stroke-opacity:1"
     x="486.63086"
     y="415.25879"
     id="text3538"
     sodipodi:linespacing="125%"><tspan
       sodipodi:role="line"
       id="tspan3540"
       x="486.63086"
       y="415.25879">Historique</tspan></text>
  <text
     xml:space="preserve"
     style="font-style:normal;font-weight:normal;font-size:12.5px;line-height:125%;font-family:sans-serif;letter-spacing:0px;word-spacing:0px;fill:#e3dbdb;fill-opacity:1;stroke:none;stroke-width:1px;stroke-linecap:butt;stroke-linejoin:miter;stroke-opacity:1"
     x="603.2121"
     y="417.60172"
     id="text3542"
     sodipodi:linespacing="125%"><tspan
       sodipodi:role="line"
       id="tspan3544"
       x="603.2121"
       y="417.60172">Western</tspan></text>
  <circle
     style="fill:#ffff00"
     id="path3359-9-6-3-8-8-0-4-8-1"
     cx="668.04755"
     cy="315.91791"
     r="27.5" />
  <text
     xml:space="preserve"
     style="font-style:normal;font-weight:normal;font-size:11.25px;line-height:125%;font-family:sans-serif;letter-spacing:0px;word-spacing:0px;fill:#000000;fill-opacity:1;stroke:none;stroke-width:1px;stroke-linecap:butt;stroke-linejoin:miter;stroke-opacity:1"
     x="643.12506"
     y="320.33716"
     id="text3534"
     sodipodi:linespacing="125%"><tspan
       sodipodi:role="line"
       id="tspan3536"
       x="643.12506"
       y="320.33716">Comédie</tspan></text>
</svg>
