<?xml version="1.0" encoding="UTF-8" standalone="no"?>
<!-- Created with Inkscape (http://www.inkscape.org/) -->

<svg
   xmlns:dc="http://purl.org/dc/elements/1.1/"
   xmlns:cc="http://creativecommons.org/ns#"
   xmlns:rdf="http://www.w3.org/1999/02/22-rdf-syntax-ns#"
   xmlns:svg="http://www.w3.org/2000/svg"
   xmlns="http://www.w3.org/2000/svg"
   xmlns:sodipodi="http://sodipodi.sourceforge.net/DTD/sodipodi-0.dtd"
   xmlns:inkscape="http://www.inkscape.org/namespaces/inkscape"
   id="svg2"
   version="1.1"
   inkscape:version="0.92.2 (5c3e80d, 2017-08-06)"
   width="800"
   height="600"
   viewBox="0 0 800 600"
   sodipodi:docname="tweet.svg">
  <metadata
     id="metadata8">
    <rdf:RDF>
      <cc:Work
         rdf:about="">
        <dc:format>image/svg+xml</dc:format>
        <dc:type
           rdf:resource="http://purl.org/dc/dcmitype/StillImage" />
        <dc:title />
      </cc:Work>
    </rdf:RDF>
  </metadata>
  <defs
     id="defs6" />
  <sodipodi:namedview
     pagecolor="#ffffff"
     bordercolor="#666666"
     borderopacity="1"
     objecttolerance="10"
     gridtolerance="10"
     guidetolerance="10"
     inkscape:pageopacity="0"
     inkscape:pageshadow="2"
     inkscape:window-width="1920"
     inkscape:window-height="1017"
     id="namedview4"
     showgrid="false"
     inkscape:zoom="0.721875"
     inkscape:cx="247.42145"
     inkscape:cy="387.68073"
     inkscape:window-x="-8"
     inkscape:window-y="-8"
     inkscape:window-maximized="1"
     inkscape:current-layer="svg2"
     inkscape:snap-page="true" />
  <path
     id="path42"
     style="fill:#000000;stroke-width:1"
     d="m 584.44922,172.33594 c -26.71722,0.26034 -53.19356,8.83723 -77.97461,25.41015 -20.38633,13.63383 -37.96399,29.81324 -68.25781,62.83008 l -13.04492,14.21875 -14.48047,-15.78125 c -16.58133,-18.07235 -25.80109,-27.57651 -35.5918,-36.6875 -31.07046,-28.91214 -57.4903,-43.67534 -87.3125,-48.79101 -8.45145,-1.44981 -26.30252,-1.29751 -36.0625,0.30859 -20.07011,3.3028 -39.05805,11.19973 -54.78516,22.7832 -37.57467,27.67479 -59.02875,73.55183 -57.52539,123.01367 1.19473,39.30589 13.6282,72.96201 36.15039,97.85352 9.67862,10.69676 18.64597,17.75087 31.31641,24.63477 14.66713,7.96868 29.51406,12.34533 47.69141,14.05859 4.79107,0.45154 22.86767,-0.18202 28.4707,-0.99805 27.97432,-4.07393 54.28146,-16.8569 81.14258,-39.42773 13.61278,-11.4382 25.9424,-23.63912 46.74218,-46.25195 l 14.23438,-15.47657 14,15.26172 c 16.96154,18.49022 26.79585,28.61594 36.53711,37.61719 31.24207,28.86963 57.18646,43.31834 86.83789,48.36133 6.8712,1.16862 25.30045,1.31163 32.74219,0.2539 21.60301,-3.07071 41.37201,-11.01285 58.11914,-23.34765 27.87793,-20.53305 47.37108,-51.71592 54.54687,-87.25781 2.32572,-11.51874 2.79053,-16.53909 2.83203,-30.51368 0.0378,-13.31192 -0.40442,-19.54375 -2.12304,-29.98242 -9.61495,-58.39913 -46.80476,-99.86925 -98.42774,-109.75586 -7.72372,-1.47921 -15.46521,-2.25404 -23.1914,-2.33398 -0.8623,-0.009 -1.7241,-0.008 -2.58594,0 z m -314.45508,57.61718 c 16.92742,-0.1492 34.54776,5.78696 51.8418,17.7754 14.43843,10.00893 23.31346,18.35534 50.49414,47.48632 l 17.87109,19.1543 -4.17578,4.99219 c -6.17187,7.37519 -23.98849,26.5902 -31.33008,33.78906 -27.0369,26.51086 -48.72828,39.75258 -72.83984,44.4707 -5.13013,1.00378 -18.07012,1.43615 -23.01367,0.76758 -12.05621,-1.63043 -24.07516,-6.53561 -33.64063,-13.72851 -4.98137,-3.74572 -13.91155,-13.72777 -17.49023,-19.55078 -7.94926,-12.93462 -12.18688,-26.7608 -13.41211,-43.75196 -1.39901,-19.40067 3.2327,-38.46375 13.34961,-54.9375 4.09152,-6.66236 13.97331,-17.52843 19.85547,-21.83398 13.15769,-9.63112 27.55427,-14.50112 42.49023,-14.63282 z m 313.58984,0.043 c 19.66887,0.14974 37.05045,7.99625 50.64258,22.91016 13.05679,14.3263 20.06827,31.75003 21.79688,54.16016 1.48927,19.30828 -3.22367,38.84481 -13.34766,55.33007 -4.09132,6.66235 -13.97127,17.52843 -19.85351,21.83399 -10.94756,8.01341 -22.36313,12.65877 -34.76172,14.14648 -25.4637,3.0555 -51.28772,-7.64925 -78.66993,-32.61133 -7.42761,-6.77093 -13.41174,-12.90525 -31.39257,-32.17578 l -17.86914,-19.15039 4.64648,-5.51172 c 6.48643,-7.69194 23.2461,-25.78119 30.61719,-33.04687 31.01769,-30.57401 56.81236,-44.60534 84.22656,-45.8125 1.33115,-0.0586 2.65359,-0.0823 3.96484,-0.0723 z" />
  <circle
     style="fill:#241c1c"
     id="path3357"
     cx="431.38721"
     cy="313.91791"
     r="45" />
  <circle
     style="fill:#ffb380"
     id="path3359"
     cx="329.5"
     cy="220.5"
     r="27.5" />
  <circle
     style="fill:#d40000"
     id="path3359-9"
     cx="327.5"
     cy="408.5"
     r="27.5" />
  <circle
     style="fill:#445500"
     id="path3359-9-6"
     cx="227.04359"
     cy="211.5"
     r="27.5" />
  <circle
     style="fill:#00aad4"
     id="path3359-9-6-3"
     cx="234.01509"
     cy="421.5"
     r="27.5" />
  <circle
     style="fill:#ff5555"
     id="path3359-9-6-3-8"
     cx="167.5"
     cy="323.418"
     r="27.5" />
  <circle
     style="fill:#88aa00"
     id="path3359-9-6-3-8-8"
     cx="512.5"
     cy="226.5"
     r="27.5" />
  <circle
     style="fill:#800080"
     id="path3359-9-6-3-8-8-0"
     cx="627.5"
     cy="211.5"
     r="27.5" />
  <circle
     style="fill:#ac9d93"
     id="path3359-9-6-3-8-8-0-4"
     cx="512.5"
     cy="402.5"
     r="27.5" />
  <circle
     style="fill:#502d16"
     id="path3359-9-6-3-8-8-0-4-8"
     cx="627.5"
     cy="415.5"
     r="27.5" />
  <circle
     style="fill:#ffcc00"
     id="path3359-9-6-3-8-8-0-4-8-9"
     cx="682.96014"
     cy="323.418"
     r="27.5" />
  <text
     xml:space="preserve"
     style="font-style:normal;font-variant:normal;font-weight:normal;font-stretch:normal;line-height:0%;font-family:'Segoe Script';-inkscape-font-specification:'Segoe Script';letter-spacing:0px;word-spacing:0px;fill:#ffffff;fill-opacity:1;stroke:none;stroke-width:1px;stroke-linecap:butt;stroke-linejoin:miter;stroke-opacity:1"
     x="398.71445"
     y="325.72827"
     id="text3502"><tspan
       sodipodi:role="line"
       id="tspan3504"
       x="398.71445"
       y="325.72827"
       style="font-size:25px;line-height:1.25">Film</tspan></text>
  <text
     xml:space="preserve"
     style="font-style:normal;font-weight:normal;line-height:0%;font-family:sans-serif;letter-spacing:0px;word-spacing:0px;fill:#ffffff;fill-opacity:1;stroke:none;stroke-width:1px;stroke-linecap:butt;stroke-linejoin:miter;stroke-opacity:1"
     x="306.59659"
     y="414.78476"
     id="text3506"><tspan
       sodipodi:role="line"
       id="tspan3508"
       x="306.59659"
       y="414.78476"
       style="font-size:12.5px;line-height:1.25">Horreur</tspan></text>
  <text
     xml:space="preserve"
     style="font-style:normal;font-weight:normal;line-height:0%;font-family:sans-serif;letter-spacing:0px;word-spacing:0px;fill:#000000;fill-opacity:1;stroke:none;stroke-width:1px;stroke-linecap:butt;stroke-linejoin:miter;stroke-opacity:1"
     x="214.6015"
     y="427.47787"
     id="text3510"><tspan
       sodipodi:role="line"
       id="tspan3512"
       x="214.6015"
       y="427.47787"
       style="font-size:12.5px;line-height:1.25">Action</tspan></text>
  <text
     xml:space="preserve"
     style="font-style:normal;font-weight:normal;line-height:0%;font-family:sans-serif;letter-spacing:0px;word-spacing:0px;fill:#ffffff;fill-opacity:1;stroke:none;stroke-width:1px;stroke-linecap:butt;stroke-linejoin:miter;stroke-opacity:1"
     x="142.89035"
     y="328.6669"
     id="text3514"><tspan
       sodipodi:role="line"
       id="tspan3516"
       x="142.89035"
       y="328.6669"
       style="font-size:11.25px;line-height:1.25">Romance</tspan></text>
  <text
     xml:space="preserve"
     style="font-style:normal;font-weight:normal;line-height:0%;font-family:sans-serif;letter-spacing:0px;word-spacing:0px;fill:#000000;fill-opacity:1;stroke:none;stroke-width:1px;stroke-linecap:butt;stroke-linejoin:miter;stroke-opacity:1"
     x="204.76515"
     y="217.12189"
     id="text3518"><tspan
       sodipodi:role="line"
       id="tspan3520"
       x="204.76515"
       y="217.12189"
       style="font-size:11.25px;line-height:1.25">Aventure</tspan></text>
  <text
     xml:space="preserve"
     style="font-style:normal;font-weight:normal;line-height:0%;font-family:sans-serif;letter-spacing:0px;word-spacing:0px;fill:#ffffff;fill-opacity:1;stroke:none;stroke-width:1px;stroke-linecap:butt;stroke-linejoin:miter;stroke-opacity:1"
     x="309.69891"
     y="225.97868"
     id="text3522"><tspan
       sodipodi:role="line"
       id="tspan3524"
       x="309.69891"
       y="225.97868"
       style="font-size:12.5px;line-height:1.25">Drame</tspan></text>
  <text
     xml:space="preserve"
     style="font-style:normal;font-weight:normal;line-height:0%;font-family:sans-serif;letter-spacing:0px;word-spacing:0px;fill:#000000;fill-opacity:1;stroke:none;stroke-width:1px;stroke-linecap:butt;stroke-linejoin:miter;stroke-opacity:1"
     x="491.77094"
     y="232.99913"
     id="text3526"><tspan
       sodipodi:role="line"
       id="tspan3528"
       x="491.77094"
       y="232.99913"
       style="font-size:12.5px;line-height:1.25">Thriller</tspan></text>
  <text
     xml:space="preserve"
     style="font-style:normal;font-weight:normal;line-height:0%;font-family:sans-serif;letter-spacing:0px;word-spacing:0px;fill:#ffffff;fill-opacity:1;stroke:none;stroke-width:1px;stroke-linecap:butt;stroke-linejoin:miter;stroke-opacity:1"
     x="607.31598"
     y="208.9173"
     id="text3530"><tspan
       sodipodi:role="line"
       id="tspan3532"
       x="607.31598"
       y="208.9173"
       style="font-size:12.5px;line-height:1.25">F<tspan
   style="font-size:12.5px;fill:#ffffff"
   id="tspan3550">antas</tspan></tspan><tspan
       sodipodi:role="line"
       x="607.31598"
       y="224.5423"
       id="tspan3548"
       style="font-size:12.5px;line-height:1.25;fill:#ffffff">tique</tspan></text>
  <text
     xml:space="preserve"
     style="font-style:normal;font-weight:normal;line-height:0%;font-family:sans-serif;letter-spacing:0px;word-spacing:0px;fill:#000000;fill-opacity:1;stroke:none;stroke-width:1px;stroke-linecap:butt;stroke-linejoin:miter;stroke-opacity:1"
     x="660.62036"
     y="329.64645"
     id="text3534"><tspan
       sodipodi:role="line"
       id="tspan3536"
       x="660.62036"
       y="329.64645"
       style="font-size:11.25px;line-height:1.25">Comédie</tspan></text>
  <text
     xml:space="preserve"
     style="font-style:normal;font-weight:normal;line-height:0%;font-family:sans-serif;letter-spacing:0px;word-spacing:0px;fill:#000000;fill-opacity:1;stroke:none;stroke-width:1px;stroke-linecap:butt;stroke-linejoin:miter;stroke-opacity:1"
     x="489.2381"
     y="407.06494"
     id="text3538"><tspan
       sodipodi:role="line"
       id="tspan3540"
       x="489.2381"
       y="407.06494"
       style="font-size:10px;line-height:1.25">Historique</tspan></text>
  <text
     xml:space="preserve"
     style="font-style:normal;font-weight:normal;line-height:0%;font-family:sans-serif;letter-spacing:0px;word-spacing:0px;fill:#ffffff;fill-opacity:1;stroke:none;stroke-width:1px;stroke-linecap:butt;stroke-linejoin:miter;stroke-opacity:1"
     x="603.2121"
     y="421.60172"
     id="text3542"><tspan
       sodipodi:role="line"
       id="tspan3544"
       x="603.2121"
       y="421.60172"
       style="font-size:12.5px;line-height:1.25">Western</tspan></text>
</svg>
