<?xml version="1.0" encoding="UTF-8" standalone="no"?>
<!-- Created with Inkscape (http://www.inkscape.org/) -->

<svg
   xmlns:dc="http://purl.org/dc/elements/1.1/"
   xmlns:cc="http://creativecommons.org/ns#"
   xmlns:rdf="http://www.w3.org/1999/02/22-rdf-syntax-ns#"
   xmlns:svg="http://www.w3.org/2000/svg"
   xmlns="http://www.w3.org/2000/svg"
   xmlns:sodipodi="http://sodipodi.sourceforge.net/DTD/sodipodi-0.dtd"
   xmlns:inkscape="http://www.inkscape.org/namespaces/inkscape"
   width="800px"
   height="600px"
   id="svg2985"
   version="1.1"
   inkscape:version="0.48.5 r10040"
   sodipodi:docname="tweet.svg">
  <defs
     id="defs2987" />
  <sodipodi:namedview
     id="base"
     pagecolor="#ffffff"
     bordercolor="#666666"
     borderopacity="1.0"
     inkscape:pageopacity="0.0"
     inkscape:pageshadow="2"
     inkscape:zoom="0.6"
     inkscape:cx="193.73521"
     inkscape:cy="180.29896"
     inkscape:current-layer="layer1"
     inkscape:document-units="px"
     showgrid="false"
     inkscape:window-width="1366"
     inkscape:window-height="720"
     inkscape:window-x="0"
     inkscape:window-y="0"
     inkscape:window-maximized="1" />
  <metadata
     id="metadata2990">
    <rdf:RDF>
      <cc:Work
         rdf:about="">
        <dc:format>image/svg+xml</dc:format>
        <dc:type
           rdf:resource="http://purl.org/dc/dcmitype/StillImage" />
        <dc:title />
      </cc:Work>
    </rdf:RDF>
  </metadata>
  <g
     id="layer1"
     inkscape:label="Layer 1"
     inkscape:groupmode="layer">
    <g
       id="g3204">
      <ellipse
         transform="matrix(2.0923344,0,0,1.3991033,-491.18316,-42.303981)"
         sodipodi:ry="203.75"
         sodipodi:rx="172.08334"
         sodipodi:cy="248.75"
         sodipodi:cx="427.91666"
         ry="203.75"
         rx="172.08334"
         cy="248.75"
         cx="427.91666"
         id="path3009"
         style="fill:#ffd42a"
         d="M 600,248.75 C 600,361.27802 522.95566,452.5 427.91666,452.5 332.87765,452.5 255.83331,361.27802 255.83331,248.75 255.83331,136.22198 332.87765,45 427.91666,45 522.95566,45 600,136.22198 600,248.75 z" />
      <g
         id="g3199">
        <g
           id="g3195">
          <text
             transform="scale(0.93497177,1.069551)"
             sodipodi:linespacing="125%"
             id="text3011"
             y="313.3461"
             x="366.37555"
             style="font-size:72.40061951px;font-style:normal;font-weight:normal;line-height:125%;letter-spacing:0px;word-spacing:0px;fill:#f6ffd5;fill-opacity:1;stroke:none;font-family:Sans"
             xml:space="preserve"><tspan
               y="313.3461"
               x="366.37555"
               id="tspan3013"
               sodipodi:role="line">film</tspan></text>
        </g>
      </g>
    </g>
    <text
       xml:space="preserve"
       style="font-size:52.66477966px;font-style:normal;font-weight:normal;line-height:0%;letter-spacing:0px;word-spacing:0px;fill:#ffffff;fill-opacity:1;stroke:none;font-family:Sans"
       x="346.50876"
       y="973.617"
       id="text3025"
       sodipodi:linespacing="0%"
       transform="scale(1.1726499,0.85276944)"><tspan
         sodipodi:role="line"
         id="tspan3027"
         x="346.50876"
         y="973.617" /></text>
    <text
       xml:space="preserve"
       style="font-size:32px;font-style:normal;font-weight:normal;line-height:125%;letter-spacing:0px;word-spacing:0px;fill:#000000;fill-opacity:1;stroke:none;font-family:Sans"
       x="613.4151"
       y="380.20764"
       id="text3137"
       sodipodi:linespacing="125%"><tspan
         sodipodi:role="line"
         id="tspan3139"
         x="613.4151"
         y="380.20764" /></text>
    <flowRoot
       xml:space="preserve"
       id="flowRoot3202"
       style="fill:black;stroke:none;stroke-opacity:1;stroke-width:1px;stroke-linejoin:miter;stroke-linecap:butt;fill-opacity:1;font-family:Sans;font-style:normal;font-weight:normal;font-size:4px;line-height:125%;letter-spacing:0px;word-spacing:0px"><flowRegion
         id="flowRegion3204"><rect
           id="rect3206"
           width="58.336311"
           height="35.649967"
           x="483.48425"
           y="353.39651" /></flowRegion><flowPara
         id="flowPara3208" /></flowRoot>    <flowRoot
       xml:space="preserve"
       id="flowRoot3381"
       style="fill:black;stroke:none;stroke-opacity:1;stroke-width:1px;stroke-linejoin:miter;stroke-linecap:butt;fill-opacity:1;font-family:Sans;font-style:normal;font-weight:normal;font-size:4px;line-height:125%;letter-spacing:0px;word-spacing:0px"><flowRegion
         id="flowRegion3383"><rect
           id="rect3385"
           width="52.443752"
           height="55.39003"
           x="521.49127"
           y="169.54875" /></flowRegion><flowPara
         id="flowPara3387" /></flowRoot>    <text
       xml:space="preserve"
       style="font-size:22px;font-style:normal;font-weight:normal;line-height:125%;letter-spacing:0px;word-spacing:0px;fill:#000000;fill-opacity:1;stroke:none;font-family:Sans"
       x="420.83334"
       y="810.83331"
       id="text3215"
       sodipodi:linespacing="125%"><tspan
         sodipodi:role="line"
         id="tspan3217"
         x="420.83334"
         y="810.83331" /></text>
    <flowRoot
       xml:space="preserve"
       id="flowRoot3245"
       style="fill:black;stroke:none;stroke-opacity:1;stroke-width:1px;stroke-linejoin:miter;stroke-linecap:butt;fill-opacity:1;font-family:Sans;font-style:normal;font-weight:normal;font-size:24px;line-height:125%;letter-spacing:0px;word-spacing:0px"><flowRegion
         id="flowRegion3247"><rect
           id="rect3249"
           width="27.105761"
           height="111.95857"
           x="1282.2203"
           y="-49.359726" /></flowRegion><flowPara
         id="flowPara3251"></flowPara></flowRoot>    <g
       id="g3260"
       transform="matrix(0.86537573,0,0,0.86537573,-446.42625,222.08779)">
      <ellipse
         transform="matrix(1.7762802,0,0,1.7762802,461.62925,-91.056563)"
         sodipodi:ry="56.666668"
         sodipodi:rx="76.666672"
         sodipodi:cy="109.69023"
         sodipodi:cx="431.12003"
         ry="56.666668"
         rx="76.666672"
         cy="109.69023"
         cx="431.12003"
         id="path3023-8-0-2"
         style="fill:#ff0000"
         d="m 507.7867,109.69023 c 0,31.29614 -34.32484,56.66667 -76.66667,56.66667 -42.34184,0 -76.66668,-25.37053 -76.66668,-56.66667 0,-31.296135 34.32484,-56.666667 76.66668,-56.666667 42.34183,0 76.66667,25.370532 76.66667,56.666667 z" />
      <text
         transform="scale(0.98839417,1.0117421)"
         sodipodi:linespacing="125%"
         id="text3141-4-9"
         y="111.52679"
         x="1202.8082"
         style="font-size:24px;font-style:normal;font-weight:normal;line-height:125%;letter-spacing:0px;word-spacing:0px;fill:#ffffff;fill-opacity:1;stroke:none;font-family:Sans"
         xml:space="preserve"><tspan
           y="111.52679"
           x="1202.8082"
           id="tspan3143-2-0"
           sodipodi:role="line">drame</tspan></text>
    </g>
    <g
       id="g3226"
       transform="matrix(0.93331936,0,0,0.93331936,-683.84561,-258.98681)">
      <g
         transform="matrix(4.6785878,0,0,3.3238268,-681.0283,-763.26156)"
         id="g3045">
        <path
           sodipodi:type="arc"
           style="fill:#808080"
           id="path3023"
           sodipodi:cx="383.33334"
           sodipodi:cy="426.04166"
           sodipodi:rx="27.083334"
           sodipodi:ry="26.458334"
           d="m 410.41668,426.04166 c 0,14.61253 -12.12562,26.45833 -27.08334,26.45833 -14.95771,0 -27.08333,-11.8458 -27.08333,-26.45833 0,-14.61254 12.12562,-26.45834 27.08333,-26.45834 14.95772,0 27.08334,11.8458 27.08334,26.45834 z"
           transform="matrix(1.0153846,0,0,1.0393701,7.0907157,-87.886449)" />
      </g>
      <text
         sodipodi:linespacing="125%"
         id="text3222"
         y="425.40665"
         x="1133.3"
         style="font-size:21.35882378px;font-style:normal;font-weight:normal;line-height:125%;letter-spacing:0px;word-spacing:0px;fill:#ffffff;fill-opacity:1;stroke:none;font-family:Sans"
         xml:space="preserve"><tspan
           y="425.40665"
           x="1133.3"
           id="tspan3224"
           sodipodi:role="line">thriller</tspan></text>
    </g>
    <g
       id="g3240"
       transform="matrix(0.81067088,0,0,0.81067088,-588.99171,220.77634)">
      <path
         d="m 410.41668,426.04166 c 0,14.61253 -12.12562,26.45833 -27.08334,26.45833 -14.95771,0 -27.08333,-11.8458 -27.08333,-26.45833 0,-14.61254 12.12562,-26.45834 27.08333,-26.45834 14.95772,0 27.08334,11.8458 27.08334,26.45834 z"
         sodipodi:ry="26.458334"
         sodipodi:rx="27.083334"
         sodipodi:cy="426.04166"
         sodipodi:cx="383.33334"
         id="path3023-8-0"
         style="fill:#c8ab37"
         sodipodi:type="arc"
         transform="matrix(5.4603673,0,0,3.9887287,-860.80606,-1375.758)" />
      <text
         sodipodi:linespacing="125%"
         id="text3235"
         y="331.86246"
         x="1178.3934"
         style="font-size:24px;font-style:normal;font-weight:normal;line-height:125%;letter-spacing:0px;word-spacing:0px;fill:#ffffff;fill-opacity:1;stroke:none;font-family:Sans"
         xml:space="preserve"><tspan
           y="331.86246"
           x="1178.3934"
           id="tspan3238"
           sodipodi:role="line">aventure</tspan></text>
    </g>
    <g
       id="g3265"
       transform="matrix(0.85171559,0,0,0.85171559,-859.16653,32.865353)">
      <path
         d="m 410.41668,426.04166 c 0,14.61253 -12.12562,26.45833 -27.08334,26.45833 -14.95771,0 -27.08333,-11.8458 -27.08333,-26.45833 0,-14.61254 12.12562,-26.45834 27.08333,-26.45834 14.95772,0 27.08334,11.8458 27.08334,26.45834 z"
         sodipodi:ry="26.458334"
         sodipodi:rx="27.083334"
         sodipodi:cy="426.04166"
         sodipodi:cx="383.33334"
         id="path3023-8"
         style="fill:#37c837"
         sodipodi:type="arc"
         transform="matrix(5.388568,0,0,3.8232551,-835.04904,-1306.0717)" />
      <text
         sodipodi:linespacing="125%"
         id="text3256"
         y="332.22198"
         x="1179.1937"
         style="font-size:24px;font-style:normal;font-weight:normal;line-height:125%;letter-spacing:0px;word-spacing:0px;fill:#ffffff;fill-opacity:1;stroke:none;font-family:Sans"
         xml:space="preserve"><tspan
           y="332.22198"
           x="1179.1937"
           id="tspan3258"
           sodipodi:role="line">comédie</tspan></text>
    </g>
    <g
       id="g3123"
       transform="matrix(1.005487,0,0,1.005487,-71.10132,226.40188)">
      <ellipse
         transform="translate(303.33333,-22.5)"
         sodipodi:ry="31.666666"
         sodipodi:rx="32.5"
         sodipodi:cy="107.2149"
         sodipodi:cx="456.90265"
         ry="31.666666"
         rx="32.5"
         cy="107.2149"
         cx="456.90265"
         id="path3031-70-2-2-2"
         style="fill:#aa0000;fill-opacity:1"
         d="m 489.40265,107.2149 c 0,17.48901 -14.55075,31.66666 -32.5,31.66666 -17.94926,0 -32.5,-14.17765 -32.5,-31.66666 0,-17.48902 14.55074,-31.666669 32.5,-31.666669 17.94925,0 32.5,14.177649 32.5,31.666669 z" />
      <text
         sodipodi:linespacing="125%"
         id="text3163-9-2-8"
         y="81.921928"
         x="760.08557"
         style="font-size:8px;font-style:normal;font-weight:normal;text-align:center;line-height:125%;letter-spacing:0px;word-spacing:0px;text-anchor:middle;fill:#eef4d7;fill-opacity:1;stroke:none;font-family:Sans"
         xml:space="preserve"><tspan
           id="tspan3297-8"
           y="81.921928"
           x="760.08557"
           sodipodi:role="line">drame</tspan><tspan
           id="tspan3379"
           y="91.921928"
           x="760.08557"
           sodipodi:role="line">historique</tspan></text>
    </g>
    <g
       id="g3107"
       transform="matrix(1.1542056,0,0,1.154205,-252.64749,-267.81826)">
      <ellipse
         transform="matrix(1.7327936,0,0,1.7327936,158.12039,-395.10402)"
         id="path3031-70-2-2-2-0"
         style="fill:#aa0000;fill-opacity:1"
         cx="342.91666"
         cy="492.91666"
         rx="16.25"
         ry="15.833333"
         d="m 359.16666,492.91666 c 0,8.7445 -7.27538,15.83333 -16.25,15.83333 -8.97463,0 -16.25,-7.08883 -16.25,-15.83333 0,-8.74451 7.27537,-15.83334 16.25,-15.83334 8.97462,0 16.25,7.08883 16.25,15.83334 z"
         sodipodi:cx="342.91666"
         sodipodi:cy="492.91666"
         sodipodi:rx="16.25"
         sodipodi:ry="15.833333" />
      <text
         sodipodi:linespacing="125%"
         id="text3163-9-2-8-4"
         y="456.599"
         x="752.42908"
         style="font-size:6.93117428px;font-style:normal;font-weight:normal;text-align:center;line-height:125%;letter-spacing:0px;word-spacing:0px;text-anchor:middle;fill:#eef4d7;fill-opacity:1;stroke:none;font-family:Sans"
         xml:space="preserve"><tspan
           id="tspan3297-8-0"
           y="456.599"
           x="752.42908"
           sodipodi:role="line">drame</tspan><tspan
           id="tspan3379-9"
           y="465.26297"
           x="752.42908"
           sodipodi:role="line">fantastique</tspan></text>
    </g>
    <g
       id="g3158"
       transform="matrix(2.1025641,0,0,2.1025641,-1187.1755,-899.44534)">
      <path
         transform="translate(311.86826,58.793627)"
         d="m 359.16666,492.91666 c 0,8.7445 -7.27538,15.83333 -16.25,15.83333 -8.97463,0 -16.25,-7.08883 -16.25,-15.83333 0,-8.74451 7.27537,-15.83334 16.25,-15.83334 8.97462,0 16.25,7.08883 16.25,15.83334 z"
         sodipodi:ry="15.833333"
         sodipodi:rx="16.25"
         sodipodi:cy="492.91666"
         sodipodi:cx="342.91666"
         id="path3031-70-4"
         style="fill:#217821;fill-opacity:1"
         sodipodi:type="arc" />
      <text
         sodipodi:linespacing="125%"
         id="text3163-8"
         y="550.39386"
         x="654.70972"
         style="font-size:4px;font-style:normal;font-weight:normal;text-align:center;line-height:125%;letter-spacing:0px;word-spacing:0px;text-anchor:middle;fill:#eef4d7;fill-opacity:1;stroke:none;font-family:Sans"
         xml:space="preserve"><tspan
           y="550.39386"
           x="654.70972"
           id="tspan3165-0"
           sodipodi:role="line">comédie</tspan><tspan
           id="tspan3167-4"
           y="555.39386"
           x="654.70972"
           sodipodi:role="line">romantique</tspan></text>
    </g>
    <g
       id="g3145"
       transform="matrix(2.0427351,0,0,2.127322,-1152.5338,-780.2077)">
      <path
         transform="translate(354.32009,17.958423)"
         d="m 359.16666,492.91666 c 0,8.7445 -7.27538,15.83333 -16.25,15.83333 -8.97463,0 -16.25,-7.08883 -16.25,-15.83333 0,-8.74451 7.27537,-15.83334 16.25,-15.83334 8.97462,0 16.25,7.08883 16.25,15.83334 z"
         sodipodi:ry="15.833333"
         sodipodi:rx="16.25"
         sodipodi:cy="492.91666"
         sodipodi:cx="342.91666"
         id="path3031-70-2"
         style="fill:#217821;fill-opacity:1"
         sodipodi:type="arc" />
      <text
         sodipodi:linespacing="125%"
         id="text3163-9"
         y="509.94638"
         x="697.16156"
         style="font-size:4px;font-style:normal;font-weight:normal;text-align:center;line-height:125%;letter-spacing:0px;word-spacing:0px;text-anchor:middle;fill:#eef4d7;fill-opacity:1;stroke:none;font-family:Sans"
         xml:space="preserve"><tspan
           y="509.94638"
           x="697.16156"
           id="tspan3165-6"
           sodipodi:role="line">comédie</tspan><tspan
           id="tspan3167-1"
           y="514.94641"
           x="697.16156"
           sodipodi:role="line">musicale</tspan><tspan
           id="tspan3237"
           y="519.94641"
           x="697.16156"
           sodipodi:role="line" /></text>
    </g>
    <g
       id="g3152"
       transform="matrix(2.2557355,0,0,2.2557355,-1587.8569,-921.74687)">
      <path
         transform="translate(407.82703,52.902292)"
         d="m 359.16666,492.91666 c 0,8.7445 -7.27538,15.83333 -16.25,15.83333 -8.97463,0 -16.25,-7.08883 -16.25,-15.83333 0,-8.74451 7.27537,-15.83334 16.25,-15.83334 8.97462,0 16.25,7.08883 16.25,15.83334 z"
         sodipodi:ry="15.833333"
         sodipodi:rx="16.25"
         sodipodi:cy="492.91666"
         sodipodi:cx="342.91666"
         id="path3031-70"
         style="fill:#217821;fill-opacity:1"
         sodipodi:type="arc" />
      <text
         sodipodi:linespacing="125%"
         id="text3163"
         y="544.50256"
         x="750.73981"
         style="font-size:4px;font-style:normal;font-weight:normal;text-align:center;line-height:125%;letter-spacing:0px;word-spacing:0px;text-anchor:middle;fill:#eef4d7;fill-opacity:1;stroke:none;font-family:Sans"
         xml:space="preserve"><tspan
           y="544.50256"
           x="750.73981"
           id="tspan3165"
           sodipodi:role="line">comédie</tspan><tspan
           id="tspan3167"
           y="549.50256"
           x="750.73981"
           sodipodi:role="line">dramatique</tspan></text>
    </g>
    <g
       id="g3134"
       transform="matrix(2.1059876,0,0,2.1059876,-1204.3012,-452.71907)">
      <path
         transform="translate(425.36733,-69.206947)"
         d="m 359.16666,492.91666 c 0,8.7445 -7.27538,15.83333 -16.25,15.83333 -8.97463,0 -16.25,-7.08883 -16.25,-15.83333 0,-8.74451 7.27537,-15.83334 16.25,-15.83334 8.97462,0 16.25,7.08883 16.25,15.83334 z"
         sodipodi:ry="15.833333"
         sodipodi:rx="16.25"
         sodipodi:cy="492.91666"
         sodipodi:cx="342.91666"
         id="path3031-70-2-2"
         style="fill:#786721;fill-opacity:1"
         sodipodi:type="arc" />
      <text
         sodipodi:linespacing="125%"
         id="text3163-9-2"
         y="422.198"
         x="768.17365"
         style="font-size:4px;font-style:normal;font-weight:normal;text-align:center;line-height:125%;letter-spacing:0px;word-spacing:0px;text-anchor:middle;fill:#eef4d7;fill-opacity:1;stroke:none;font-family:Sans"
         xml:space="preserve"><tspan
           id="tspan3303"
           y="422.198"
           x="768.81036"
           sodipodi:role="line">cape et </tspan><tspan
           id="tspan3297"
           y="427.198"
           x="768.17365"
           sodipodi:role="line">d'épée</tspan></text>
    </g>
    <g
       id="g3066"
       transform="matrix(2.0978763,0,0,2.0978763,-866.1584,-1114.9741)">
      <path
         d="m 359.16666,492.91666 c 0,8.7445 -7.27538,15.83333 -16.25,15.83333 -8.97463,0 -16.25,-7.08883 -16.25,-15.83333 0,-8.74451 7.27537,-15.83334 16.25,-15.83334 8.97462,0 16.25,7.08883 16.25,15.83334 z"
         sodipodi:ry="15.833333"
         sodipodi:rx="16.25"
         sodipodi:cy="492.91666"
         sodipodi:cx="342.91666"
         id="path3031-7-5"
         style="fill:#333333"
         sodipodi:type="arc"
         transform="translate(266.34531,78.639366)" />
      <text
         sodipodi:linespacing="125%"
         id="text3107"
         y="570.15955"
         x="609.25806"
         style="font-size:4px;font-style:normal;font-weight:normal;text-align:center;line-height:125%;letter-spacing:0px;word-spacing:0px;text-anchor:middle;fill:#ffffff;fill-opacity:1;stroke:none;font-family:Sans"
         xml:space="preserve"><tspan
           y="570.15955"
           x="609.25806"
           id="tspan3109"
           sodipodi:role="line">thriller</tspan><tspan
           id="tspan3111"
           y="575.15955"
           x="609.25806"
           sodipodi:role="line">d'épouvante</tspan></text>
    </g>
    <g
       id="g3076"
       transform="matrix(2.1089744,0,0,2.1089744,-969.96993,-997.91897)">
      <path
         transform="translate(347.14096,40.272457)"
         d="m 359.16666,492.91666 c 0,8.7445 -7.27538,15.83333 -16.25,15.83333 -8.97463,0 -16.25,-7.08883 -16.25,-15.83333 0,-8.74451 7.27537,-15.83334 16.25,-15.83334 8.97462,0 16.25,7.08883 16.25,15.83334 z"
         sodipodi:ry="15.833333"
         sodipodi:rx="16.25"
         sodipodi:cy="492.91666"
         sodipodi:cx="342.91666"
         id="path3031"
         style="fill:#333333"
         sodipodi:type="arc" />
      <text
         sodipodi:linespacing="125%"
         id="text3033"
         y="531.7926"
         x="690.11816"
         style="font-size:4px;font-style:normal;font-weight:normal;text-align:center;line-height:125%;letter-spacing:0px;word-spacing:0px;text-anchor:middle;fill:#ffffff;fill-opacity:1;stroke:none;font-family:Sans"
         xml:space="preserve"><tspan
           y="531.7926"
           x="690.11816"
           id="tspan3035"
           sodipodi:role="line">thriller</tspan><tspan
           id="tspan3037"
           y="536.7926"
           x="690.11816"
           sodipodi:role="line">frantastique</tspan></text>
    </g>
  </g>
</svg>
