<?xml version="1.0" encoding="UTF-8" standalone="no"?>
<!-- Generator: Adobe Illustrator 16.0.0, SVG Export Plug-In . SVG Version: 6.00 Build 0)  -->

<svg
   xmlns:dc="http://purl.org/dc/elements/1.1/"
   xmlns:cc="http://creativecommons.org/ns#"
   xmlns:rdf="http://www.w3.org/1999/02/22-rdf-syntax-ns#"
   xmlns:svg="http://www.w3.org/2000/svg"
   xmlns="http://www.w3.org/2000/svg"
   xmlns:sodipodi="http://sodipodi.sourceforge.net/DTD/sodipodi-0.dtd"
   xmlns:inkscape="http://www.inkscape.org/namespaces/inkscape"
   version="1.1"
   id="Layer_1"
   x="0px"
   y="0px"
   width="800.12"
   height="600"
   viewBox="0 0 400.06 300"
   xml:space="preserve"
   sodipodi:docname="palette tweet.svg"
   inkscape:version="0.92.1 r15371"><metadata
     id="metadata71"><rdf:RDF><cc:Work
         rdf:about=""><dc:format>image/svg+xml</dc:format><dc:type
           rdf:resource="http://purl.org/dc/dcmitype/StillImage" /><dc:title></dc:title></cc:Work></rdf:RDF></metadata><defs
     id="defs69" /><sodipodi:namedview
     pagecolor="#ffffff"
     bordercolor="#666666"
     borderopacity="1"
     objecttolerance="10"
     gridtolerance="10"
     guidetolerance="10"
     inkscape:pageopacity="0"
     inkscape:pageshadow="2"
     inkscape:window-width="1366"
     inkscape:window-height="706"
     id="namedview67"
     showgrid="false"
     inkscape:zoom="1.1073339"
     inkscape:cx="492.13159"
     inkscape:cy="232.47342"
     inkscape:window-x="-8"
     inkscape:window-y="-8"
     inkscape:window-maximized="1"
     inkscape:current-layer="Layer_1" /><style
     type="text/css"
     id="style2"><![CDATA[
	svg{background-color:white;}
	.st0{fill:#81CCAA;}
	.st1{fill:#B8E4C2;}
	.st2{fill:#1F2600;}
	.st3{fill:#F69C0D;}
	.st4{fill:#F6FDC4;}
]]></style><path
     class="st1"
     d="m 154.75905,175.4789 c 0,0 17.86083,-36.42033 89.32525,-24.69333 71.48543,11.74031 43.39137,121.41444 -95.08276,112.91235 -84.87057,-4.86404 -102.101034,-32.7823 -102.101034,-32.7823 0,0 75.309754,-7.27606 107.858544,-55.43672"
     id="path20"
     inkscape:connector-curvature="0"
     style="fill:#a0dbed;stroke-width:1.67337692;fill-opacity:1" /><path
     class="st1"
     d="m 199.61045,111.37 c 0,-24.996141 19.17568,-45.236573 42.84015,-45.236573 23.66447,0 42.82659,20.254756 42.82659,45.236573 0,24.98182 -19.17568,45.2509 -42.82659,45.2509 -23.65091,0 -42.84015,-20.26908 -42.84015,-45.2509"
     id="path22"
     inkscape:connector-curvature="0"
     style="fill:#b8e4ef;stroke-width:1.39376473;fill-opacity:1" /><path
     class="st3"
     d="m 284.2536,115.31552 c 0,0 26.44298,-10.23896 32.35027,-14.29812 l -33.73084,-2.397525 c 0,0 4.91134,9.685855 1.38057,16.695645"
     id="path24"
     inkscape:connector-curvature="0"
     style="fill:#f69c0d;stroke-width:1.79032803"
     sodipodi:nodetypes="cccc" /><path
     class="st4"
     d="m 244.63319,107.5662 c 0,-10.767932 6.92831,-19.49455 15.47728,-19.49455 8.54896,0 15.47727,8.726618 15.47727,19.49455 0,10.76793 -6.92831,19.49455 -15.47727,19.49455 -8.56248,0 -15.47728,-8.72662 -15.47728,-19.49455"
     id="path28"
     inkscape:connector-curvature="0"
     style="fill:#f6fdc4;stroke-width:1.51572096" /><g
     id="g36"
     transform="translate(0,100)" /><g
     id="g38"
     transform="translate(0,100)" /><g
     id="g40"
     transform="translate(0,100)" /><g
     id="g42"
     transform="translate(0,100)" /><g
     id="g44"
     transform="translate(0,100)" /><g
     id="g46"
     transform="translate(0,100)" /><g
     id="g48"
     transform="translate(0,100)" /><g
     id="g50"
     transform="translate(0,100)" /><g
     id="g52"
     transform="translate(0,100)" /><g
     id="g54"
     transform="translate(0,100)" /><g
     id="g56"
     transform="translate(0,100)" /><g
     id="g58"
     transform="translate(0,100)" /><g
     id="g60"
     transform="translate(0,100)" /><g
     id="g62"
     transform="translate(0,100)" /><g
     id="g64"
     transform="translate(0,100)" /><path
     style="fill:#241c1c;stroke-width:0.06946328"
     id="path4600"
     sodipodi:type="arc"
     sodipodi:cx="260.22681"
     sodipodi:cy="114.08021"
     sodipodi:rx="6.5202799"
     sodipodi:ry="9.159688"
     sodipodi:start="0.44620215"
     sodipodi:end="0.42697298"
     d="m 266.1087,118.033 a 6.5202799,9.159688 0 0 1 -8.66736,4.329 6.5202799,9.159688 0 0 1 -3.12321,-12.15496 6.5202799,9.159688 0 0 1 8.63734,-4.44586 6.5202799,9.159688 0 0 1 3.20625,12.11221 l -5.93491,-3.79318 z" /><path
     style="fill:#81ccef;fill-opacity:1;stroke-width:1.44885314"
     inkscape:connector-curvature="0"
     id="path4602"
     d="m 199.81992,186.80356 c -9.57224,0 -18.57771,-1.13 -26.4916,-3.11 0,0 -0.021,0.01 -0.021,0.01 l -76.05312,-12.38 c 0,0 28.92663,-30.81 88.0814,-38.09 3.16975,-0.39 5.91967,-0.59 8.37571,-0.62 2.01521,-0.1 4.03041,-0.16 6.08761,-0.16 31.50862,0 57.03459,12.17 57.03459,27.17 0.021,15.02 -25.50498,27.18 -57.0136,27.18"
     class="st0" /><text
     xml:space="preserve"
     style="font-style:normal;font-variant:normal;font-weight:normal;font-stretch:normal;font-size:27.0502739px;line-height:1.25;font-family:'Times New Roman';-inkscape-font-specification:'Times New Roman, ';letter-spacing:0px;word-spacing:0px;fill:#125500;fill-opacity:1;stroke:none;stroke-width:0.50719261"
     x="142.68411"
     y="156.65871"
     id="text4505"
     transform="scale(0.85640406,1.1676731)"><tspan
       sodipodi:role="line"
       x="142.68411"
       y="180.6691"
       style="font-style:normal;font-variant:normal;font-weight:normal;font-stretch:normal;font-size:27.0502739px;font-family:'Traditional Arabic';-inkscape-font-specification:'Traditional Arabic';fill:#125500;fill-opacity:1;stroke-width:0.50719261"
       id="tspan4507" /></text>
<text
     xml:space="preserve"
     style="font-style:normal;font-weight:normal;font-size:7.33333349px;line-height:1.25;font-family:sans-serif;letter-spacing:0px;word-spacing:0px;fill:#000000;fill-opacity:1;stroke:none;stroke-width:0.4939515"
     x="274.77209"
     y="137.73093"
     id="text4533"
     transform="matrix(0.98143721,-0.11284149,0.11562195,1.0056202,0,0)"><tspan
       sodipodi:role="line"
       id="tspan4531"
       x="274.77209"
       y="137.73093"
       style="font-size:7.33333349px;stroke-width:0.4939515">future</tspan></text>
<text
     xml:space="preserve"
     style="font-style:normal;font-weight:normal;font-size:16px;line-height:1.25;font-family:sans-serif;letter-spacing:0px;word-spacing:0px;fill:#000000;fill-opacity:1;stroke:none;stroke-width:0.5"
     x="129.6925"
     y="195.56659"
     id="text4537"
     transform="rotate(-28.682071)"><tspan
       sodipodi:role="line"
       id="tspan4535"
       x="129.6925"
       y="195.56659"
       style="font-size:16px;stroke-width:0.5">Soins</tspan></text>
<text
     xml:space="preserve"
     style="font-style:normal;font-weight:normal;font-size:18.66666603px;line-height:1.25;font-family:sans-serif;letter-spacing:0px;word-spacing:0px;fill:#000000;fill-opacity:1;stroke:none;stroke-width:0.5"
     x="35.162678"
     y="250.07869"
     id="text4541"
     transform="rotate(-6.6348643)"><tspan
       sodipodi:role="line"
       id="tspan4539"
       x="35.162678"
       y="250.07869"
       style="font-size:18.66666603px;stroke-width:0.5">science et technologie</tspan></text>
<text
     xml:space="preserve"
     style="font-style:normal;font-weight:normal;font-size:26.66666675px;line-height:1.25;font-family:sans-serif;letter-spacing:0px;word-spacing:0px;fill:#000000;fill-opacity:1;stroke:none;stroke-width:0.5;"
     x="124.33792"
     y="169.79201"
     id="text4545"
     transform="rotate(-0.41957261)"><tspan
       sodipodi:role="line"
       id="tspan4543"
       x="124.33792"
       y="169.79201"
       style="font-size:26.66666675px;stroke-width:0.5;"> médical</tspan></text>
<ellipse
     style="fill:#46d7ff;fill-opacity:1;stroke-width:0.74053162"
     id="path4551"
     cx="337.45737"
     cy="96.325813"
     rx="15.35219"
     ry="9.2564678" /><ellipse
     style="fill:#46d7ff;fill-opacity:1;stroke-width:0.65068197"
     id="path4553"
     cx="365.35562"
     cy="84.617813"
     rx="11.288375"
     ry="9.482235" /><ellipse
     style="fill:#46d7ff;fill-opacity:1;stroke-width:0.68129122"
     id="path4559"
     cx="387.41702"
     cy="74.006737"
     rx="9.482235"
     ry="8.3533974" /><text
     xml:space="preserve"
     style="font-style:normal;font-weight:normal;font-size:6.66666651px;line-height:1.25;font-family:sans-serif;letter-spacing:0px;word-spacing:0px;fill:#000000;fill-opacity:1;stroke:none;stroke-width:0.5"
     x="325.55673"
     y="97.260788"
     id="text4563"><tspan
       sodipodi:role="line"
       id="tspan4561"
       x="325.55673"
       y="97.260788"
       style="font-size:6.66666651px;stroke-width:0.5">Monde</tspan></text>
<text
     xml:space="preserve"
     style="font-style:normal;font-weight:normal;font-size:24px;line-height:1.25;font-family:sans-serif;letter-spacing:0px;word-spacing:0px;fill:#000000;fill-opacity:1;stroke:none;stroke-width:0.5"
     x="361.67953"
     y="86.42395"
     id="text4567"><tspan
       sodipodi:role="line"
       id="tspan4565"
       x="361.67953"
       y="108.31988"
       style="stroke-width:0.5" /></text>
<text
     xml:space="preserve"
     style="font-style:normal;font-weight:normal;font-size:24px;line-height:1.25;font-family:sans-serif;letter-spacing:0px;word-spacing:0px;fill:#000000;fill-opacity:1;stroke:none;stroke-width:0.5"
     x="363.03412"
     y="85.972412"
     id="text4571"><tspan
       sodipodi:role="line"
       id="tspan4569"
       x="363.03412"
       y="107.86834"
       style="stroke-width:0.5" /></text>
<text
     xml:space="preserve"
     style="font-style:normal;font-weight:normal;font-size:6.39127207px;line-height:1.25;font-family:sans-serif;letter-spacing:0px;word-spacing:0px;fill:#000000;fill-opacity:1;stroke:none;stroke-width:0.53260601"
     x="333.40256"
     y="92.540817"
     id="text4575"
     transform="scale(1.065212,0.93878026)"><tspan
       sodipodi:role="line"
       id="tspan4573"
       x="333.40256"
       y="92.540817"
       style="font-size:6.39127207px;stroke-width:0.53260601">Santé</tspan></text>
<text
     xml:space="preserve"
     style="font-style:normal;font-weight:normal;font-size:6px;line-height:1.25;font-family:sans-serif;letter-spacing:0px;word-spacing:0px;fill:#000000;fill-opacity:1;stroke:none;stroke-width:0.5"
     x="378.74091"
     y="74.684036"
     id="text4579"><tspan
       sodipodi:role="line"
       id="tspan4577"
       x="378.74091"
       y="74.684036"
       style="font-size:6px;stroke-width:0.5">vision</tspan></text>
</svg>