<?xml version="1.0" encoding="utf-8"?>
<!-- Generator: Adobe Illustrator 22.0.1, SVG Export Plug-In . SVG Version: 6.00 Build 0)  -->
<svg version="1.1" xmlns="http://www.w3.org/2000/svg" xmlns:xlink="http://www.w3.org/1999/xlink" x="0px" y="0px"
	 viewBox="0 0 800 600" style="enable-background:new 0 0 800 600;" xml:space="preserve">
<style type="text/css">
	.st0{fill:#FFFFFF;}
	.st1{fill:#175472;}
	.st2{fill:#0B8784;}
	.st3{font-family:'nevis-Bold';}
	.st4{font-size:32.1463px;}
	.st5{font-size:18.7016px;}
	.st6{font-size:23.3388px;}
	.st7{font-size:16.0368px;}
</style>
<g id="Calque_2">
	<g id="Calque_1">
		<rect class="st0" width="800" height="600"/>
		<g>
			<g>
				<path class="st1" d="M584.4,368.6L584.4,368.6c-9.3,14.5-21.2,13.2-28.7,4.1v0.2c-5.2-6.3-12.9-10.4-21.7-10.4
					c-15.5,0-28.1,12.6-28.1,28.1c0,5.8,1.8,11.3,4.8,15.8l0,0c15.7,23.3,19.2,49.5-17.8,74.6c-11.9,8.1-19.8,21.7-19.8,37.2
					c0,24.8,20.1,44.9,44.9,44.9s44.9-20.1,44.9-44.9c0-11.4-4.3-21.9-11.4-29.8h0.1c-29.8-33.6-19.9-58.1,1.1-76.8h-0.2
					c1.2-1,2.2-2.1,3.2-3.3v0.2c7.4-9,19.2-10.3,28.4,3.7c7.8,13,2.4,22.5-8.5,25.1h0.1c-13.3,3.1-23.2,15-23.2,29.2
					c0,16.6,13.5,30.1,30.1,30.1s30.1-13.5,30.1-30.1c0-4.6-1.1-9-3-12.9l0.1,0.1c-4.8-10.2-0.7-20.4,14.6-22.4h-0.1
					c20.2-2.5,35.9-19.8,35.9-40.7c0-22.7-18.4-41.1-41.1-41.1C604.5,349.5,591.7,357.1,584.4,368.6z"/>
				<path class="st1" d="M346.3,537.1L346.3,537.1c2.9-12.6,7.3-17.2,24.6-17.6l0,0c29.7-0.7,53.6-24.9,53.6-54.7
					c0-5.7-0.9-11.2-2.5-16.4c-4.1-13.6,6.4-22.3,16.6-18.8l0,0c4.2,1.4,8.6,2.2,13.3,2.2c22.7,0,41.1-18.4,41.1-41.1
					s-18.4-41.1-41.1-41.1s-41.1,18.4-41.1,41.1c0,3.2,0.4,6.2,1.1,9.2l0,0c2.4,10.5-7.4,20.1-20.6,14.5c-6.6-2.8-13.9-4.4-21.5-4.4
					c-3.6,0-7.1,0.4-10.5,1l0,0c-34.4,6.7-43.9-7.2-47.5-25.9l0,0c-2.6-13.8-14.7-24.2-29.3-24.2c-16.5,0-29.9,13.4-29.9,29.9
					c0,4.9,1.3,9.4,3.3,13.5l-0.2-0.1c7.9,15.8,2.3,30-15.9,33.9c-16.8-1.3-26.9-13.7-20-34.2l0,0c1.4-4.1,2.2-8.5,2.2-13.1
					c0-22.7-18.4-41.1-41.1-41.1s-41.1,18.4-41.1,41.1s18.4,41.1,41.1,41.1c0.8,0,1.5-0.1,2.3-0.1l-0.1,0.1
					c22.7-1.2,31.8,13.2,27,31l0,0c-0.7,2.7-1.2,5.6-1.2,8.6c0,18.3,14.8,33.2,33.2,33.2c18.3,0,33.2-14.8,33.2-33.2
					c0-5.7-1.5-11.1-4-15.8c-9.1-17.1-2.5-30.5,13.6-34.7c17.5,1.3,30.9,9.5,30,42.5l0.1-0.1c0,0.1,0,0.3,0,0.4l0,0
					c-0.4,17.3-5,21.8-17.7,24.6l0,0c-18.4,4.1-32.1,20.5-32.1,40.1c0,22.7,18.4,41.1,41.1,41.1
					C325.8,569.2,342.2,555.4,346.3,537.1z"/>
				<circle class="st1" cx="423.5" cy="546.5" r="28.8"/>
			</g>
			<g>
				<path class="st2" d="M492.9,296.5c0-4.1-0.6-8.1-1.8-11.9l0,0c0-0.1,0-0.2-0.1-0.2v-0.1c-11.3-37.7-1.4-59.9,39.9-72.4l0,0
					c18.4-5.6,31.9-22.7,31.9-42.9c0-24.8-20.1-44.9-44.9-44.9c-24.8,0-44.9,20.1-44.9,44.9c0,4.9,0.8,9.7,2.3,14.1l0,0
					c13.6,41.1,1.1,62-36.5,74.4l0,0c-5.6,1.9-10.6,4.9-14.9,8.8v-0.1c-33.3,30.6-97.4,27.3-123.1,6.8v0.2
					c-5.1-4.1-11.5-6.6-18.6-6.6c-7.7,0-14.6,3-19.9,7.8v-0.1c-16.1,14.4-31.2,17-51-5.1v0.1c-7.5-8.4-18.4-13.8-30.6-13.8
					c-22.7,0-41.1,18.4-41.1,41.1c0,22.7,18.4,41.1,41.1,41.1c12.2,0,23.1-5.3,30.6-13.8v0.1c19.8-22.1,34.9-19.5,51-5.1v-0.1
					c5.3,4.8,12.2,7.8,19.9,7.8c7.1,0,13.4-2.5,18.6-6.6v0.2c25.7-20.4,89.8-23.7,123.1,6.8v-0.1c7.3,6.7,17.1,10.9,27.8,10.9
					C474.5,337.6,492.9,319.2,492.9,296.5z"/>
				<path class="st2" d="M552.5,220.6c0,2.4,0.3,4.6,0.9,6.8h-0.1c5.7,24.7-2.5,36.4-25.6,41.8h0.1c-12.5,2.9-21.8,14-21.8,27.3
					c0,15.5,12.6,28.1,28.1,28.1c9.8,0,18.4-5,23.4-12.6l0,0c5.7-8.6,18.2-9.9,25.2,3.5l0,0c6.9,13.1,20.6,22.1,36.4,22.1
					c22.7,0,41.1-18.4,41.1-41.1s-18.4-41.1-41.1-41.1c-15.8,0-29.5,9-36.4,22.1l0,0c-5.9,11.4-15.8,12.1-22.2,6.9
					c-2.2-19,5.8-29.7,28.1-34.4c0,0,0,0,0.1,0c0,0,0,0,0.1,0l0,0c13.6-2.8,23.9-14.9,23.9-29.4c0-16.6-13.5-30.1-30.1-30.1
					S552.5,204,552.5,220.6z"/>
				<ellipse class="st2" cx="299.7" cy="152.5" rx="34.5" ry="34.5"/>
				<path class="st2" d="M262.1,242.4c19.6-14.9,39.3-19.2,63.9,13.2v-0.1c10,13.2,25.8,21.7,43.6,21.7c30.3,0,54.8-24.5,54.8-54.8
					c0-10.3-2.9-19.9-7.8-28.1l0.1,0.1c-8.1-13.7-0.7-22.7,7.7-23l-0.1-0.1c15.5-0.5,27.9-13.1,27.9-28.7
					c0-15.9-12.9-28.8-28.8-28.8s-28.8,12.9-28.8,28.8c0,3.5,0.7,6.8,1.9,10l-0.1-0.1c2.9,7.8-2.7,18.1-18.4,15.7l0.1,0.1
					c-2.8-0.4-5.6-0.7-8.4-0.7c-15.8,0-30,6.8-40,17.5V185c-27.7,29.7-46.9,23.5-64.9,6.7l0,0c-5.9-5.5-13.9-9-22.6-9
					c-18.3,0-33.2,14.8-33.2,33.2c0,18.3,14.8,33.2,33.2,33.2C249.6,249.2,256.6,246.6,262.1,242.4L262.1,242.4z"/>
			</g>
		</g>
		<rect class="st1" width="800" height="74"/>
		<text transform="matrix(1 0 0 1 109.5452 47.5481)" class="st0 st3 st4">BRAIN FESTIVALS MUSIC TWEETS</text>
	</g>
</g>
<g id="RNB">
	<circle class="st2" cx="620" cy="295" r="33"/>
	<text transform="matrix(1 0 0 1 598.5479 301.1992)" class="st0 st3 st5">R&amp;B</text>
</g>
<g id="BLUES">
	<circle class="st2" cx="517" cy="168" r="33"/>
	<text transform="matrix(1 0 0 1 485.5479 175.1992)" class="st0 st3 st5">BLUES</text>
</g>
<g id="METAL">
	<circle class="st2" cx="452" cy="296" r="33"/>
	<text transform="matrix(1 0 0 1 415.5479 302.1992)" class="st0 st3 st5">METAL</text>
</g>
<g id="ELECTRO">
	<circle class="st2" cx="181.7" cy="295" r="33"/>
	<text transform="matrix(1 0 0 1 148.2146 301.1992)" class="st0 st3 st5">ELECTRO</text>
</g>
<g id="RAP">
	<circle class="st2" cx="299.7" cy="152.1" r="30"/>
	<text transform="matrix(1 0 0 1 278.2408 158.2992)" class="st0 st3 st5">RAP</text>
</g>
<g id="HOUSE">
	<circle class="st2" cx="370" cy="221" r="47"/>
	<text transform="matrix(1 0 0 1 327.0005 228.7207)" class="st0 st3 st6">HOUSE</text>
</g>
<g id="TECHNO">
	<circle class="st1" cx="367" cy="464" r="47"/>
	<text transform="matrix(1 0 0 1 324.5479 470.1992)" class="st0 st3 st5">TECHNO</text>
</g>
<g id="JAZZ">
	<circle class="st1" cx="452" cy="389" r="33"/>
	<text transform="matrix(1 0 0 1 426.5479 398.1992)" class="st0 st3 st5">JAZZ</text>
</g>
<g id="DEEP">
	<circle class="st1" cx="181" cy="389" r="33"/>
	<text transform="matrix(1 0 0 1 153.5479 397.1992)" class="st0 st3 st5">DEEP</text>
</g>
<g id="FOLK">
	<g>
		<circle class="st1" cx="241.7" cy="471.2" r="30"/>
		<text transform="matrix(1 0 0 1 219.9312 476.5234)" class="st0 st3 st7">FOLK</text>
	</g>
</g>
<g id="POP">
	<circle class="st1" cx="304.7" cy="530.7" r="30"/>
	<text transform="matrix(1 0 0 1 286.2146 537.8659)" class="st0 st3 st5">POP</text>
</g>
<g id="RAI">
	<circle class="st1" cx="422.5" cy="546.5" r="22"/>
	<text transform="matrix(1 0 0 1 406.0958 552.6992)" class="st0 st3 st5">RAI</text>
</g>
<g id="ROCK">
	<circle class="st1" cx="518" cy="517.7" r="33"/>
	<text transform="matrix(1 0 0 1 492.5479 524.8992)" class="st0 st3 st5">ROCK</text>
</g>
<g id="TRANCE">
	<circle class="st1" cx="617" cy="389" r="33"/>
	<text transform="matrix(1 0 0 1 569.5479 398.1992)" class="st0 st3 st5">TRANCE</text>
</g>
</svg>
