<?xml version="1.0" encoding="utf-8"?>
<!-- Generator: Adobe Illustrator 19.2.1, SVG Export Plug-In . SVG Version: 6.00 Build 0)  -->
<svg version="1.1" id="Calque_1" xmlns="http://www.w3.org/2000/svg" xmlns:xlink="http://www.w3.org/1999/xlink" x="0px" y="0px"
	 viewBox="0 0 800 600" style="enable-background:new 0 0 800 600;" xml:space="preserve">
<style type="text/css">
	.st0{fill:none;stroke:#594A42;stroke-width:0.7123;stroke-miterlimit:10;stroke-dasharray:2.6835;}
	.st1{fill:#FFDD17;}
	.st2{fill:none;stroke:#3C2415;stroke-width:1.6644;stroke-miterlimit:10;}
	.st3{fill:#3C2415;}
	.st4{fill:#E52C47;}
	.st5{fill:#1362B7;}
	.st6{fill:#1B71BF;}
	.st7{fill:#FFFFFF;}
	.st8{fill:#E06410;}
	.st9{fill:#E87323;}
	.st10{fill:#AA229D;}
	.st11{fill:#B22BB2;}
	.st12{fill:#89C445;}
	.st13{fill:#96CE4E;}
	.st14{fill:#FCA72B;}
	.st15{fill:#FFB54A;}
	.st16{fill:none;stroke:#594A42;stroke-width:0.6605;stroke-miterlimit:10;stroke-dasharray:2.4884;}
	.st17{fill:#3DBEA0;}
	.st18{fill:#50C9A6;}
	.st19{fill:none;stroke:#594A42;stroke-width:0.6835;stroke-miterlimit:10;stroke-dasharray:2.5752;}
	.st20{fill:#28A9E0;}
	.st21{fill:#5D5D5D;}
	.st22{fill:#32B3E0;}
	.st23{fill:#F4456F;}
</style>
<line class="st0" x1="397" y1="130.4" x2="397.5" y2="196.8"/>
<line class="st0" x1="397.8" y1="394.7" x2="398.2" y2="461.1"/>
<circle class="st1" cx="399.3" cy="294.2" r="91.8"/>
<g>
	<g>
		<path class="st2" d="M344,210.6c12.9-8.6,28-14.2,44.2-16"/>
		<polygon class="st3" points="382.5,202 393.3,193.7 380.7,188.5 		"/>
	</g>
	<g>
		<path class="st2" d="M299.5,284.8c2-21.8,11-41.5,24.6-57"/>
		<polygon class="st3" points="325.5,235.8 329.1,222.7 315.9,226.2 		"/>
	</g>
	<g>
		<path class="st2" d="M468.5,222.6c15.6,15.3,25.2,34.7,28.6,55.1"/>
		<polygon class="st3" points="490,273.7 498,284.8 503.6,272.4 		"/>
	</g>
	<g>
		<path class="st2" d="M409.5,194.5c14.3,1.4,27.6,5.9,39.5,12.7"/>
		<polygon class="st3" points="442.4,210.7 456.1,211.2 449.7,199.1 		"/>
	</g>
	<g>
		<path class="st2" d="M498.5,303c-2,21.7-11,41.5-24.6,57"/>
		<polygon class="st3" points="472.5,351.9 468.9,365.1 482.1,361.6 		"/>
	</g>
	<g>
		<path class="st2" d="M329.5,365.1c-15.6-15.3-25.2-34.7-28.6-55.1"/>
		<polygon class="st3" points="308,314 300,302.9 294.4,315.4 		"/>
	</g>
	<g>
		<path class="st2" d="M388.5,393.3c-14.3-1.4-27.6-5.9-39.5-12.7"/>
		<polygon class="st3" points="357.7,378.3 344,378.1 350.7,390 		"/>
	</g>
	<g>
		<path class="st2" d="M454,377.2c-11.3,7.5-24.2,12.7-38.1,15.1"/>
		<polygon class="st3" points="418.1,385.1 407.2,393.4 419.8,398.6 		"/>
	</g>
</g>
<line class="st0" x1="509.2" y1="167.2" x2="461.4" y2="214.9"/>
<circle class="st4" cx="461.2" cy="215.3" r="3.7"/>
<circle class="st5" cx="397.1" cy="394.1" r="3.7"/>
<g>
	<path class="st6" d="M355.4,507.6c0,23.3,18.8,42.3,42.1,42.4v-84.8C374.3,465.3,355.4,484.3,355.4,507.6z"/>
	<path class="st6" d="M440.3,507.6c0-23.4-19-42.4-42.4-42.4c-0.1,0-0.2,0-0.3,0V550c0.1,0,0.2,0,0.3,0
		C421.3,550,440.3,531,440.3,507.6z"/>
	<g>
		<g>
			<g>
				<path class="st5" d="M397.9,459.3c-31.4,0.5-55,30.7-46.5,61.3c8.4,30.1,44.4,44.5,71.2,28.4c14.6-8.7,23.3-24.5,23.5-41.5
					c0-1.5-2.4-1.5-2.4,0c-0.4,29.9-29.2,52.3-58.3,44.2c-28.6-8-42.3-42.2-27-67.7c8.3-13.9,23.3-22.1,39.4-22.4
					C399.4,461.7,399.4,459.3,397.9,459.3L397.9,459.3z"/>
			</g>
		</g>
		<circle class="st5" cx="398.3" cy="460.2" r="3.7"/>
	</g>
	<g>
		<path class="st7" d="M437.4,507.6c0,21.8-17.7,39.5-39.5,39.5c-21.8,0-39.5-17.7-39.5-39.5s17.7-39.5,39.5-39.5
			C419.7,468.1,437.4,485.8,437.4,507.6z M434,507.6c0-20-16.2-36.2-36.2-36.2c-20,0-36.2,16.2-36.2,36.2c0,20,16.2,36.2,36.2,36.2
			C417.8,543.8,434,527.6,434,507.6z"/>
	</g>
</g>
<line class="st0" x1="467.6" y1="374.8" x2="518.7" y2="428.3"/>
<circle class="st8" cx="461.2" cy="372.8" r="3.7"/>
<g>
	<path class="st9" d="M502.5,466c0,23,18.3,41.7,41.1,42.4v-84.8C520.8,424.3,502.5,443,502.5,466z"/>
	<path class="st9" d="M587.3,466c0-23.4-19-42.4-42.4-42.4c-0.4,0-0.8,0-1.3,0v84.8c0.4,0,0.8,0,1.3,0
		C568.3,508.4,587.3,489.4,587.3,466z"/>
	<g>
		<g>
			<g>
				<path class="st8" d="M544.9,514.3c23.7-0.3,44.3-17.6,47.7-41.3c3.4-23.5-11.3-46.6-34.1-53.3c-14.6-4.3-30.3-1.3-42.5,7.6
					c-1.2,0.9,0,2.9,1.2,2.1c25.7-18.6,63.1-6.7,71.8,24.2c8.2,29.1-14.3,57.9-44.2,58.3C543.3,511.9,543.3,514.3,544.9,514.3
					L544.9,514.3z"/>
			</g>
		</g>
		<circle class="st8" cx="516.2" cy="428.9" r="3.7"/>
	</g>
	<g>
		<path class="st7" d="M544.9,426.5c21.8,0,39.5,17.7,39.5,39.5c0,21.8-17.7,39.5-39.5,39.5c-21.8,0-39.5-17.7-39.5-39.5
			C505.3,444.2,523.1,426.5,544.9,426.5z M544.9,502.2c20,0,36.2-16.2,36.2-36.2c0-20-16.2-36.2-36.2-36.2
			c-20,0-36.2,16.2-36.2,36.2C508.7,486,524.9,502.2,544.9,502.2z"/>
	</g>
</g>
<rect x="528.6" y="454.9" class="st8" width="8.5" height="2.4"/>
<line class="st0" x1="334" y1="376.8" x2="280" y2="429.2"/>
<circle class="st10" cx="333.6" cy="372.8" r="3.7"/>
<g>
	<path class="st11" d="M293,466.4c0,23-18.3,41.7-41.1,42.4v-84.8C274.7,424.7,293,443.4,293,466.4z"/>
	<path class="st11" d="M208.2,466.4c0-23.4,19-42.4,42.4-42.4c0.4,0,0.8,0,1.3,0v84.8c-0.4,0-0.8,0-1.3,0
		C227.2,508.9,208.2,489.9,208.2,466.4z"/>
	<g>
		<g>
			<g>
				<path class="st10" d="M250.6,512.3c-29.9-0.4-52.4-29.1-44.2-58.3c8.7-31,46.2-42.8,71.8-24.2c1.2,0.9,2.4-1.2,1.2-2.1
					c-21-15.2-50.7-11.6-66.8,8.9c-14.6,18.6-13.3,45.8,2.9,63c9.1,9.7,21.8,14.9,35,15.1C252.2,514.7,252.2,512.3,250.6,512.3
					L250.6,512.3z"/>
			</g>
		</g>
		<circle class="st10" cx="279.3" cy="429.3" r="3.7"/>
	</g>
	<g>
		<path class="st7" d="M290.2,466.4c0,21.8-17.7,39.5-39.5,39.5c-21.8,0-39.5-17.7-39.5-39.5c0-21.8,17.7-39.5,39.5-39.5
			C272.4,426.9,290.2,444.6,290.2,466.4z M286.8,466.4c0-20-16.2-36.2-36.2-36.2c-20,0-36.2,16.2-36.2,36.2
			c0,20,16.2,36.2,36.2,36.2C270.6,502.6,286.8,486.4,286.8,466.4z"/>
	</g>
</g>
<circle class="st12" cx="399" cy="193.4" r="3.7"/>
<g>
	<path class="st13" d="M353.8,84.2c0,23.4,19,42.4,42.4,42.4V41.8C372.8,41.8,353.8,60.8,353.8,84.2z"/>
	<path class="st13" d="M438.6,84.2c0-23.4-19-42.4-42.4-42.4v84.8C419.6,126.6,438.6,107.7,438.6,84.2z"/>
	<g>
		<g>
			<path class="st12" d="M363.1,51.1c24.4-23.7,66.5-14.5,77.4,18.1c10.2,30.2-12.9,61.3-44.4,61.8c-1.5,0-1.5,2.4,0,2.4
				c25-0.4,46.4-19.2,48.9-44.4c2.5-25.2-15.4-48.9-40.4-53.3c-15.9-2.7-31.8,2.5-43.3,13.7C360.3,50.5,362,52.2,363.1,51.1
				L363.1,51.1z"/>
		</g>
	</g>
	<g>
		<path class="st7" d="M396.2,123.8c-21.8,0-39.5-17.7-39.5-39.5c0-21.8,17.7-39.5,39.5-39.5c21.8,0,39.5,17.7,39.5,39.5
			C435.8,106,418,123.8,396.2,123.8z M396.2,48c-20,0-36.2,16.2-36.2,36.2c0,20,16.2,36.2,36.2,36.2c20,0,36.2-16.2,36.2-36.2
			C432.4,64.3,416.2,48,396.2,48z"/>
	</g>
</g>
<circle class="st12" cx="396.6" cy="132.2" r="3.7"/>
<line class="st0" x1="274.7" y1="164.6" x2="333.6" y2="215.2"/>
<circle class="st14" cx="333.6" cy="215.3" r="3.7"/>
<g>
	<path class="st15" d="M238.8,97.2c-23.4,0-42.4,19-42.4,42.4c0,23.4,19,42.4,42.4,42.4c0.4,0,0.8,0,1.2,0V97.3
		C239.6,97.3,239.2,97.2,238.8,97.2z"/>
	<path class="st15" d="M281.2,139.7c0-23-18.4-41.8-41.2-42.4V182C262.9,181.4,281.2,162.7,281.2,139.7z"/>
	<g>
		<path class="st7" d="M238.8,179.2c-21.8,0-39.5-17.7-39.5-39.5s17.7-39.5,39.5-39.5s39.5,17.7,39.5,39.5S260.6,179.2,238.8,179.2z
			 M238.8,103.5c-20,0-36.2,16.2-36.2,36.2c0,20,16.2,36.2,36.2,36.2c20,0,36.2-16.2,36.2-36.2C275,119.7,258.8,103.5,238.8,103.5z"
			/>
	</g>
</g>
<g>
	<g>
		<g>
			<path class="st14" d="M277.4,168.6c15.3-21,11.7-50.8-8.8-67c-18.6-14.6-45.8-13.3-63,2.9c-9.7,9.1-14.9,21.8-15.1,35
				c0,1.5,2.4,1.5,2.4,0c0.4-29.9,29.1-52.3,58.3-44.2c31,8.7,42.9,46.3,24.1,72C274.4,168.7,276.5,169.9,277.4,168.6L277.4,168.6z"
				/>
		</g>
	</g>
	<circle class="st14" cx="277.1" cy="168.2" r="3.7"/>
</g>
<line class="st16" x1="497.6" y1="293.5" x2="543.8" y2="293.5"/>
<circle class="st17" cx="498.7" cy="293.5" r="3.7"/>
<g>
	<path class="st18" d="M553.2,293.7c0,23.4,19,42.4,42.4,42.4v-84.8C572.2,251.3,553.2,270.3,553.2,293.7z"/>
	<path class="st18" d="M638,293.7c0-23.4-19-42.4-42.4-42.4v84.8C619,336.1,638,317.1,638,293.7z"/>
	<g>
		<path class="st7" d="M556,293.7c0-21.8,17.7-39.5,39.5-39.5c21.8,0,39.5,17.7,39.5,39.5c0,21.8-17.7,39.5-39.5,39.5
			C573.8,333.2,556,315.5,556,293.7z M559.4,293.7c0,20,16.2,36.2,36.2,36.2c20,0,36.2-16.2,36.2-36.2c0-20-16.2-36.2-36.2-36.2
			C575.6,257.5,559.4,273.7,559.4,293.7z"/>
	</g>
	<g>
		<g>
			<g>
				<path class="st17" d="M595.6,342c31.4-0.5,55-30.7,46.5-61.3c-8.4-30.1-44.4-44.5-71.2-28.4c-14.6,8.7-23.3,24.5-23.5,41.4
					c0,1.5,2.4,1.5,2.4,0c0.4-29.9,29.2-52.3,58.3-44.2c28.6,8,42.3,42.2,27,67.7c-8.3,13.9-23.3,22.1-39.4,22.4
					C594.1,339.6,594.1,342,595.6,342L595.6,342z"/>
			</g>
		</g>
		<circle class="st17" cx="548.2" cy="294" r="3.7"/>
	</g>
</g>
<line class="st19" x1="250" y1="293.5" x2="296.7" y2="293.5"/>
<circle class="st20" cx="297.3" cy="293.5" r="3.7"/>
<path class="st21" d="M241.4,293.6c0-0.2-0.2-0.4-0.5-0.5c0.1,0.3,0.2,0.6,0.3,0.9C241.3,293.8,241.4,293.7,241.4,293.6z"/>
<g>
	<path class="st22" d="M203,251.1c-23.4,0-42.4,19-42.4,42.4c0,23.4,19,42.4,42.4,42.4c0.2,0,0.4,0,0.6,0v-84.8
		C203.4,251.1,203.2,251.1,203,251.1z"/>
	<path class="st22" d="M245.4,293.5c0-23.2-18.6-42.1-41.8-42.4v84.8C226.7,335.5,245.4,316.7,245.4,293.5z"/>
	<g>
		<g>
			<g>
				<path class="st20" d="M251.2,293.5c-0.5-31.4-30.7-55-61.3-46.5c-30.1,8.4-44.5,44.4-28.4,71.2c8.7,14.6,24.5,23.3,41.5,23.5
					c1.5,0,1.5-2.4,0-2.4c-29.9-0.4-52.3-29.1-44.2-58.3c8-28.6,42.2-42.3,67.7-27c13.9,8.3,22.1,23.3,22.4,39.4
					C248.9,295,251.2,295,251.2,293.5L251.2,293.5z"/>
			</g>
		</g>
		<circle class="st20" cx="250" cy="293.9" r="3.7"/>
	</g>
	<g>
		<path class="st7" d="M203,333c-21.8,0-39.5-17.7-39.5-39.5c0-21.8,17.7-39.5,39.5-39.5s39.5,17.7,39.5,39.5
			C242.5,315.3,224.8,333,203,333z M203,257.3c-20,0-36.2,16.2-36.2,36.2c0,20,16.2,36.2,36.2,36.2c20,0,36.2-16.2,36.2-36.2
			C239.2,273.5,222.9,257.3,203,257.3z"/>
	</g>
</g>
<path class="st21" d="M189.6,293.6c0,0.1,0.1,0.2,0.2,0.3c0.1-0.3,0.2-0.6,0.3-0.9C189.8,293.2,189.6,293.4,189.6,293.6z"/>
<g>
	<g>
		<g>
			<g>
				<g>
					<g>
						<path class="st7" d="M514.7,463.1c0.6-0.1,1.3-0.2,2-0.2c1.4,0,2.4,0.3,3,0.9c0.7,0.6,1,1.5,1,2.7c0,1.2-0.4,2.2-1.1,2.9
							c-0.7,0.7-1.8,1.1-3.3,1.1c-0.7,0-1.3,0-1.7-0.1V463.1z M515.6,469.6c0.2,0,0.6,0.1,1,0.1c2,0,3.2-1.1,3.2-3.1
							c0-1.7-1-2.9-3-2.9c-0.5,0-0.9,0-1.1,0.1V469.6z"/>
						<path class="st7" d="M522.5,467.9c0,1.3,0.9,1.8,1.8,1.8c0.7,0,1.1-0.1,1.5-0.3l0.2,0.7c-0.3,0.2-0.9,0.3-1.8,0.3
							c-1.6,0-2.6-1.1-2.6-2.7s0.9-2.9,2.5-2.9c1.7,0,2.2,1.5,2.2,2.5c0,0.2,0,0.4,0,0.5H522.5z M525.4,467.2c0-0.6-0.3-1.6-1.3-1.6
							c-1,0-1.4,0.9-1.5,1.6H525.4z"/>
						<path class="st7" d="M527.9,465.1l1,3c0.2,0.5,0.3,0.9,0.4,1.4h0c0.1-0.4,0.3-0.9,0.5-1.4l1-3h1l-2.1,5.3h-0.9l-2-5.3H527.9z"
							/>
						<path class="st7" d="M533.2,467.9c0,1.3,0.9,1.8,1.8,1.8c0.7,0,1.1-0.1,1.5-0.3l0.2,0.7c-0.3,0.2-0.9,0.3-1.8,0.3
							c-1.6,0-2.6-1.1-2.6-2.7s0.9-2.9,2.5-2.9c1.7,0,2.2,1.5,2.2,2.5c0,0.2,0,0.4,0,0.5H533.2z M536.1,467.2c0-0.6-0.3-1.6-1.3-1.6
							c-1,0-1.4,0.9-1.5,1.6H536.1z"/>
						<path class="st7" d="M538.2,462.6h1v7.8h-1V462.6z"/>
						<path class="st7" d="M545.6,467.7c0,2-1.4,2.8-2.7,2.8c-1.4,0-2.6-1.1-2.6-2.7c0-1.8,1.2-2.8,2.6-2.8
							C544.6,465,545.6,466.1,545.6,467.7z M541.4,467.8c0,1.2,0.7,2,1.6,2c0.9,0,1.6-0.9,1.6-2.1c0-0.9-0.5-2-1.6-2
							C541.9,465.7,541.4,466.7,541.4,467.8z"/>
						<path class="st7" d="M546.8,466.8c0-0.7,0-1.2,0-1.7h0.9l0,0.9h0c0.4-0.6,1-1,1.9-1c1.3,0,2.3,1.1,2.3,2.7
							c0,1.9-1.2,2.9-2.4,2.9c-0.7,0-1.3-0.3-1.6-0.8h0v2.9h-1V466.8z M547.8,468.2c0,0.1,0,0.3,0,0.4c0.2,0.7,0.8,1.1,1.5,1.1
							c1,0,1.6-0.8,1.6-2.1c0-1.1-0.6-2-1.6-2c-0.7,0-1.3,0.5-1.5,1.2c0,0.1-0.1,0.3-0.1,0.4V468.2z"/>
						<path class="st7" d="M553.1,466.5c0-0.5,0-1,0-1.4h0.8l0,0.9h0c0.3-0.5,0.8-1,1.7-1c0.7,0,1.3,0.4,1.5,1.1h0
							c0.2-0.3,0.4-0.5,0.6-0.7c0.3-0.2,0.7-0.4,1.2-0.4c0.7,0,1.7,0.5,1.7,2.3v3.1h-0.9v-3c0-1-0.4-1.6-1.2-1.6
							c-0.5,0-1,0.4-1.1,0.9c0,0.1-0.1,0.3-0.1,0.5v3.3h-0.9v-3.2c0-0.8-0.4-1.5-1.1-1.5c-0.6,0-1,0.5-1.2,1
							c-0.1,0.1-0.1,0.3-0.1,0.5v3.2h-0.9V466.5z"/>
						<path class="st7" d="M562.8,467.9c0,1.3,0.9,1.8,1.8,1.8c0.7,0,1.1-0.1,1.5-0.3l0.2,0.7c-0.3,0.2-0.9,0.3-1.8,0.3
							c-1.6,0-2.6-1.1-2.6-2.7s0.9-2.9,2.5-2.9c1.7,0,2.2,1.5,2.2,2.5c0,0.2,0,0.4,0,0.5H562.8z M565.7,467.2c0-0.6-0.3-1.6-1.3-1.6
							c-1,0-1.4,0.9-1.5,1.6H565.7z"/>
						<path class="st7" d="M567.8,466.5c0-0.5,0-1,0-1.4h0.9l0.1,0.9h0c0.3-0.5,0.9-1,1.8-1c0.7,0,1.9,0.4,1.9,2.3v3.2h-1v-3.1
							c0-0.9-0.3-1.6-1.2-1.6c-0.6,0-1.1,0.5-1.3,1c0,0.1-0.1,0.3-0.1,0.5v3.2h-1V466.5z"/>
						<path class="st7" d="M575,463.6v1.5h1.4v0.7H575v2.9c0,0.7,0.2,1,0.7,1c0.3,0,0.4,0,0.6-0.1l0,0.7c-0.2,0.1-0.5,0.1-0.9,0.1
							c-0.5,0-0.8-0.1-1-0.4c-0.3-0.3-0.4-0.8-0.4-1.4v-2.9h-0.8v-0.7h0.8v-1.3L575,463.6z"/>
					</g>
				</g>
			</g>
		</g>
	</g>
</g>
<g>
	<g>
		<g>
			<g>
				<g>
					<g>
						<path class="st7" d="M366.6,505.7c0.5-0.1,1.2-0.1,1.8-0.1c1.2,0,2.1,0.3,2.7,0.8c0.6,0.5,0.9,1.3,0.9,2.4c0,1.1-0.3,2-1,2.6
							c-0.6,0.6-1.7,1-3,1c-0.6,0-1.1,0-1.6-0.1V505.7z M367.4,511.7c0.2,0,0.5,0,0.9,0c1.9,0,2.9-1,2.9-2.9c0-1.6-0.9-2.6-2.7-2.6
							c-0.4,0-0.8,0-1,0.1V511.7z"/>
						<path class="st7" d="M377.6,509.9c0,1.8-1.2,2.6-2.4,2.6c-1.3,0-2.3-1-2.3-2.5c0-1.6,1.1-2.6,2.4-2.6
							C376.7,507.4,377.6,508.4,377.6,509.9z M373.8,510c0,1.1,0.6,1.9,1.5,1.9c0.8,0,1.5-0.8,1.5-1.9c0-0.8-0.4-1.9-1.4-1.9
							C374.2,508.1,373.8,509.1,373.8,510z"/>
						<path class="st7" d="M382.2,512.2c-0.2,0.1-0.7,0.3-1.4,0.3c-1.5,0-2.4-1-2.4-2.5c0-1.5,1-2.6,2.6-2.6c0.5,0,1,0.1,1.2,0.3
							l-0.2,0.7c-0.2-0.1-0.5-0.2-1-0.2c-1.1,0-1.7,0.8-1.7,1.8c0,1.1,0.7,1.8,1.7,1.8c0.5,0,0.8-0.1,1.1-0.2L382.2,512.2z"/>
						<path class="st7" d="M387.2,511.1c0,0.5,0,0.9,0,1.3h-0.8l0-0.8h0c-0.2,0.4-0.7,0.9-1.6,0.9c-0.8,0-1.7-0.4-1.7-2.1v-2.8h0.9
							v2.7c0,0.9,0.3,1.5,1.1,1.5c0.6,0,1-0.4,1.2-0.8c0-0.1,0.1-0.3,0.1-0.4v-3h0.9V511.1z"/>
						<path class="st7" d="M388.7,508.9c0-0.5,0-0.9,0-1.3h0.8l0,0.8h0c0.3-0.5,0.7-0.9,1.5-0.9c0.7,0,1.2,0.4,1.4,1h0
							c0.1-0.3,0.3-0.5,0.5-0.6c0.3-0.2,0.6-0.3,1.1-0.3c0.6,0,1.6,0.4,1.6,2.1v2.8h-0.9v-2.7c0-0.9-0.3-1.5-1-1.5
							c-0.5,0-0.9,0.4-1,0.8c0,0.1-0.1,0.3-0.1,0.4v3h-0.9v-2.9c0-0.8-0.3-1.3-1-1.3c-0.5,0-0.9,0.4-1.1,0.9
							c-0.1,0.1-0.1,0.3-0.1,0.4v2.9h-0.9V508.9z"/>
						<path class="st7" d="M397.5,510.1c0,1.2,0.8,1.7,1.7,1.7c0.6,0,1-0.1,1.3-0.3l0.1,0.6c-0.3,0.1-0.8,0.3-1.6,0.3
							c-1.5,0-2.4-1-2.4-2.4s0.9-2.6,2.3-2.6c1.6,0,2,1.4,2,2.3c0,0.2,0,0.3,0,0.4H397.5z M400.1,509.5c0-0.6-0.2-1.4-1.2-1.4
							c-0.9,0-1.3,0.8-1.3,1.4H400.1z"/>
						<path class="st7" d="M402.1,508.9c0-0.5,0-0.9,0-1.3h0.8l0.1,0.8h0c0.2-0.5,0.8-0.9,1.6-0.9c0.7,0,1.7,0.4,1.7,2.1v2.9h-0.9
							v-2.8c0-0.8-0.3-1.4-1.1-1.4c-0.6,0-1,0.4-1.2,0.9c0,0.1-0.1,0.3-0.1,0.4v2.9h-0.9V508.9z"/>
						<path class="st7" d="M408.6,506.2v1.4h1.3v0.7h-1.3v2.6c0,0.6,0.2,0.9,0.7,0.9c0.2,0,0.4,0,0.5-0.1l0,0.7
							c-0.2,0.1-0.4,0.1-0.8,0.1c-0.4,0-0.7-0.1-0.9-0.4c-0.3-0.3-0.3-0.7-0.3-1.3v-2.6H407v-0.7h0.8v-1.2L408.6,506.2z"/>
						<path class="st7" d="M413.5,512.4l-0.1-0.6h0c-0.3,0.4-0.8,0.7-1.5,0.7c-1,0-1.5-0.7-1.5-1.4c0-1.2,1-1.8,2.9-1.8v-0.1
							c0-0.4-0.1-1.1-1.1-1.1c-0.5,0-0.9,0.1-1.3,0.4l-0.2-0.6c0.4-0.3,1-0.4,1.6-0.4c1.5,0,1.8,1,1.8,2v1.8c0,0.4,0,0.8,0.1,1.2
							H413.5z M413.4,509.9c-1,0-2,0.1-2,1.1c0,0.6,0.4,0.8,0.8,0.8c0.6,0,1-0.4,1.2-0.8c0-0.1,0-0.2,0-0.3V509.9z"/>
						<path class="st7" d="M416.7,506.2v1.4h1.3v0.7h-1.3v2.6c0,0.6,0.2,0.9,0.7,0.9c0.2,0,0.4,0,0.5-0.1l0,0.7
							c-0.2,0.1-0.4,0.1-0.8,0.1c-0.4,0-0.7-0.1-0.9-0.4c-0.3-0.3-0.3-0.7-0.3-1.3v-2.6h-0.8v-0.7h0.8v-1.2L416.7,506.2z"/>
						<path class="st7" d="M419.9,506.2c0,0.3-0.2,0.5-0.6,0.5c-0.3,0-0.5-0.2-0.5-0.5c0-0.3,0.2-0.5,0.5-0.5
							C419.7,505.6,419.9,505.9,419.9,506.2z M419,512.4v-4.8h0.9v4.8H419z"/>
						<path class="st7" d="M425.7,509.9c0,1.8-1.2,2.6-2.4,2.6c-1.3,0-2.3-1-2.3-2.5c0-1.6,1.1-2.6,2.4-2.6
							C424.7,507.4,425.7,508.4,425.7,509.9z M421.8,510c0,1.1,0.6,1.9,1.5,1.9c0.8,0,1.5-0.8,1.5-1.9c0-0.8-0.4-1.9-1.4-1.9
							C422.3,508.1,421.8,509.1,421.8,510z"/>
						<path class="st7" d="M426.8,508.9c0-0.5,0-0.9,0-1.3h0.8l0.1,0.8h0c0.2-0.5,0.8-0.9,1.6-0.9c0.7,0,1.7,0.4,1.7,2.1v2.9H430
							v-2.8c0-0.8-0.3-1.4-1.1-1.4c-0.6,0-1,0.4-1.2,0.9c0,0.1-0.1,0.3-0.1,0.4v2.9h-0.9V508.9z"/>
					</g>
				</g>
			</g>
		</g>
	</g>
</g>
<g>
	<g>
		<g>
			<g>
				<g>
					<g>
						<path class="st7" d="M226.1,465.5c-0.1-1.1-0.1-2.5-0.1-3.5h0c-0.3,0.9-0.6,2-1,3.1l-1.4,3.9h-0.8l-1.3-3.8
							c-0.4-1.1-0.7-2.2-0.9-3.1h0c0,1-0.1,2.4-0.2,3.6l-0.2,3.5h-1l0.6-8.1h1.3l1.4,3.9c0.3,1,0.6,1.9,0.8,2.7h0
							c0.2-0.8,0.5-1.7,0.9-2.7l1.4-3.9h1.3l0.5,8.1h-1L226.1,465.5z"/>
						<path class="st7" d="M232.1,469.1l-0.1-0.7h0c-0.3,0.5-0.9,0.9-1.8,0.9c-1.2,0-1.8-0.8-1.8-1.7c0-1.4,1.2-2.2,3.5-2.2v-0.1
							c0-0.5-0.1-1.3-1.3-1.3c-0.5,0-1.1,0.2-1.5,0.4l-0.2-0.7c0.5-0.3,1.2-0.5,1.9-0.5c1.8,0,2.2,1.2,2.2,2.4v2.2
							c0,0.5,0,1,0.1,1.4H232.1z M232,466.1c-1.2,0-2.5,0.2-2.5,1.3c0,0.7,0.5,1,1,1c0.8,0,1.2-0.5,1.4-1c0-0.1,0.1-0.2,0.1-0.3
							V466.1z"/>
						<path class="st7" d="M235.9,461.6c0,0.4-0.3,0.6-0.7,0.6c-0.4,0-0.6-0.3-0.6-0.6c0-0.4,0.3-0.7,0.7-0.7
							C235.6,461,235.9,461.3,235.9,461.6z M234.7,469.1v-5.8h1.1v5.8H234.7z"/>
						<path class="st7" d="M237.5,464.8c0-0.6,0-1.1,0-1.6h0.9l0.1,1h0c0.3-0.6,1-1.1,1.9-1.1c0.8,0,2.1,0.5,2.1,2.5v3.5h-1.1v-3.3
							c0-0.9-0.3-1.7-1.3-1.7c-0.7,0-1.2,0.5-1.4,1.1c0,0.1-0.1,0.3-0.1,0.5v3.5h-1.1V464.8z"/>
						<path class="st7" d="M245.4,461.6v1.7h1.5v0.8h-1.5v3.1c0,0.7,0.2,1.1,0.8,1.1c0.3,0,0.5,0,0.6-0.1l0,0.8
							c-0.2,0.1-0.5,0.1-0.9,0.1c-0.5,0-0.9-0.2-1.1-0.4c-0.3-0.3-0.4-0.8-0.4-1.5v-3.2h-0.9v-0.8h0.9v-1.4L245.4,461.6z"/>
						<path class="st7" d="M248.6,466.3c0,1.4,0.9,2,2,2c0.8,0,1.2-0.1,1.6-0.3l0.2,0.8c-0.4,0.2-1,0.4-1.9,0.4
							c-1.8,0-2.9-1.2-2.9-2.9s1-3.1,2.7-3.1c1.9,0,2.4,1.7,2.4,2.7c0,0.2,0,0.4,0,0.5H248.6z M251.7,465.6c0-0.7-0.3-1.7-1.5-1.7
							c-1.1,0-1.5,1-1.6,1.7H251.7z"/>
						<path class="st7" d="M254,464.8c0-0.6,0-1.1,0-1.6h0.9l0.1,1h0c0.3-0.6,1-1.1,1.9-1.1c0.8,0,2.1,0.5,2.1,2.5v3.5h-1.1v-3.3
							c0-0.9-0.3-1.7-1.3-1.7c-0.7,0-1.2,0.5-1.4,1.1c0,0.1-0.1,0.3-0.1,0.5v3.5H254V464.8z"/>
						<path class="st7" d="M263.9,469.1l-0.1-0.7h0c-0.3,0.5-0.9,0.9-1.8,0.9c-1.2,0-1.8-0.8-1.8-1.7c0-1.4,1.2-2.2,3.5-2.2v-0.1
							c0-0.5-0.1-1.3-1.3-1.3c-0.5,0-1.1,0.2-1.5,0.4l-0.2-0.7c0.5-0.3,1.2-0.5,1.9-0.5c1.8,0,2.2,1.2,2.2,2.4v2.2
							c0,0.5,0,1,0.1,1.4H263.9z M263.8,466.1c-1.2,0-2.5,0.2-2.5,1.3c0,0.7,0.5,1,1,1c0.8,0,1.2-0.5,1.4-1c0-0.1,0.1-0.2,0.1-0.3
							V466.1z"/>
						<path class="st7" d="M266.5,464.8c0-0.6,0-1.1,0-1.6h0.9l0.1,1h0c0.3-0.6,1-1.1,1.9-1.1c0.8,0,2.1,0.5,2.1,2.5v3.5h-1.1v-3.3
							c0-0.9-0.3-1.7-1.3-1.7c-0.7,0-1.2,0.5-1.4,1.1c0,0.1-0.1,0.3-0.1,0.5v3.5h-1.1V464.8z"/>
						<path class="st7" d="M277.3,468.8c-0.3,0.1-0.9,0.3-1.7,0.3c-1.8,0-2.9-1.2-2.9-3c0-1.8,1.2-3.1,3.1-3.1
							c0.6,0,1.2,0.2,1.5,0.3l-0.2,0.8c-0.3-0.1-0.6-0.3-1.2-0.3c-1.3,0-2.1,1-2.1,2.2c0,1.3,0.9,2.2,2,2.2c0.6,0,1-0.2,1.3-0.3
							L277.3,468.8z"/>
						<path class="st7" d="M279,466.3c0,1.4,0.9,2,2,2c0.8,0,1.2-0.1,1.6-0.3l0.2,0.8c-0.4,0.2-1,0.4-1.9,0.4
							c-1.8,0-2.9-1.2-2.9-2.9s1-3.1,2.7-3.1c1.9,0,2.4,1.7,2.4,2.7c0,0.2,0,0.4,0,0.5H279z M282.1,465.6c0-0.7-0.3-1.7-1.5-1.7
							c-1.1,0-1.5,1-1.6,1.7H282.1z"/>
					</g>
				</g>
			</g>
		</g>
	</g>
</g>
<g>
	<g>
		<g>
			<g>
				<g>
					<g>
						<path class="st7" d="M180.2,281.2c0.5-0.1,1.3-0.2,2-0.2c1.1,0,1.8,0.2,2.3,0.7c0.4,0.4,0.6,0.9,0.6,1.5
							c0,1.1-0.7,1.8-1.5,2.1v0c0.6,0.2,1,0.8,1.2,1.6c0.3,1.1,0.5,1.9,0.6,2.2h-1.1c-0.1-0.2-0.3-0.9-0.5-1.9
							c-0.2-1.1-0.7-1.5-1.6-1.6h-1v3.5h-1V281.2z M181.2,284.9h1.1c1.1,0,1.8-0.6,1.8-1.5c0-1-0.8-1.5-1.9-1.5c-0.5,0-0.9,0-1,0.1
							V284.9z"/>
						<path class="st7" d="M187.3,286.5c0,1.4,0.9,2,2,2c0.8,0,1.2-0.1,1.6-0.3l0.2,0.8c-0.4,0.2-1,0.4-1.9,0.4
							c-1.8,0-2.9-1.2-2.9-2.9s1-3.1,2.7-3.1c1.9,0,2.4,1.7,2.4,2.7c0,0.2,0,0.4,0,0.5H187.3z M190.4,285.7c0-0.7-0.3-1.7-1.5-1.7
							c-1.1,0-1.5,1-1.6,1.7H190.4z"/>
						<path class="st7" d="M193.1,283.4l1.1,3.3c0.2,0.5,0.3,1,0.5,1.5h0c0.1-0.5,0.3-1,0.5-1.5l1.1-3.3h1.1l-2.3,5.8h-1l-2.2-5.8
							H193.1z"/>
						<path class="st7" d="M203.3,287.6c0,0.6,0,1.1,0,1.6h-0.9l-0.1-0.9h0c-0.3,0.5-0.9,1.1-1.9,1.1c-0.9,0-2-0.5-2-2.5v-3.4h1.1
							v3.2c0,1.1,0.3,1.8,1.3,1.8c0.7,0,1.2-0.5,1.4-1c0.1-0.2,0.1-0.3,0.1-0.5v-3.6h1.1V287.6z"/>
						<path class="st7" d="M205.7,286.5c0,1.4,0.9,2,2,2c0.8,0,1.2-0.1,1.6-0.3l0.2,0.8c-0.4,0.2-1,0.4-1.9,0.4
							c-1.8,0-2.9-1.2-2.9-2.9s1-3.1,2.7-3.1c1.9,0,2.4,1.7,2.4,2.7c0,0.2,0,0.4,0,0.5H205.7z M208.8,285.7c0-0.7-0.3-1.7-1.5-1.7
							c-1.1,0-1.5,1-1.6,1.7H208.8z"/>
						<path class="st7" d="M214.2,286.5c0,1.4,0.9,2,2,2c0.8,0,1.2-0.1,1.6-0.3l0.2,0.8c-0.4,0.2-1,0.4-1.9,0.4
							c-1.8,0-2.9-1.2-2.9-2.9s1-3.1,2.7-3.1c1.9,0,2.4,1.7,2.4,2.7c0,0.2,0,0.4,0,0.5H214.2z M217.3,285.7c0-0.7-0.3-1.7-1.5-1.7
							c-1.1,0-1.5,1-1.6,1.7H217.3z"/>
						<path class="st7" d="M220.9,281.7v1.7h1.5v0.8h-1.5v3.1c0,0.7,0.2,1.1,0.8,1.1c0.3,0,0.5,0,0.6-0.1l0,0.8
							c-0.2,0.1-0.5,0.1-0.9,0.1c-0.5,0-0.9-0.2-1.1-0.4c-0.3-0.3-0.4-0.8-0.4-1.5v-3.2H219v-0.8h0.9V282L220.9,281.7z"/>
						<path class="st7" d="M177.4,300.9c0,1.4,0.9,2,2,2c0.8,0,1.2-0.1,1.6-0.3l0.2,0.8c-0.4,0.2-1,0.4-1.9,0.4
							c-1.8,0-2.9-1.2-2.9-2.9s1-3.1,2.7-3.1c1.9,0,2.4,1.7,2.4,2.7c0,0.2,0,0.4,0,0.5H177.4z M180.5,300.1c0-0.7-0.3-1.7-1.5-1.7
							c-1.1,0-1.5,1-1.6,1.7H180.5z M180.7,295.3l-1.5,1.7h-0.8l1.1-1.7H180.7z"/>
						<path class="st7" d="M183.2,297.8l1.1,3.3c0.2,0.5,0.3,1,0.5,1.5h0c0.1-0.5,0.3-1,0.5-1.5l1.1-3.3h1.1l-2.3,5.8h-1l-2.2-5.8
							H183.2z"/>
						<path class="st7" d="M191.7,303.6l-0.1-0.7h0c-0.3,0.5-0.9,0.9-1.8,0.9c-1.2,0-1.8-0.8-1.8-1.7c0-1.4,1.2-2.2,3.5-2.2v-0.1
							c0-0.5-0.1-1.3-1.3-1.3c-0.5,0-1.1,0.2-1.5,0.4l-0.2-0.7c0.5-0.3,1.2-0.5,1.9-0.5c1.8,0,2.2,1.2,2.2,2.4v2.2
							c0,0.5,0,1,0.1,1.4H191.7z M191.6,300.6c-1.2,0-2.5,0.2-2.5,1.3c0,0.7,0.5,1,1,1c0.8,0,1.2-0.5,1.4-1c0-0.1,0.1-0.2,0.1-0.3
							V300.6z"/>
						<path class="st7" d="M194.3,295.1h1.1v8.5h-1.1V295.1z"/>
						<path class="st7" d="M202,302c0,0.6,0,1.1,0,1.6h-0.9l-0.1-0.9h0c-0.3,0.5-0.9,1.1-1.9,1.1c-0.9,0-2-0.5-2-2.5v-3.4h1.1v3.2
							c0,1.1,0.3,1.8,1.3,1.8c0.7,0,1.2-0.5,1.4-1c0.1-0.2,0.1-0.3,0.1-0.5v-3.6h1.1V302z"/>
						<path class="st7" d="M207,303.6l-0.1-0.7h0c-0.3,0.5-0.9,0.9-1.8,0.9c-1.2,0-1.8-0.8-1.8-1.7c0-1.4,1.2-2.2,3.5-2.2v-0.1
							c0-0.5-0.1-1.3-1.3-1.3c-0.5,0-1.1,0.2-1.5,0.4l-0.2-0.7c0.5-0.3,1.2-0.5,1.9-0.5c1.8,0,2.2,1.2,2.2,2.4v2.2
							c0,0.5,0,1,0.1,1.4H207z M206.8,300.6c-1.2,0-2.5,0.2-2.5,1.3c0,0.7,0.5,1,1,1c0.8,0,1.2-0.5,1.4-1c0-0.1,0.1-0.2,0.1-0.3
							V300.6z"/>
						<path class="st7" d="M210.8,296.1v1.7h1.5v0.8h-1.5v3.1c0,0.7,0.2,1.1,0.8,1.1c0.3,0,0.5,0,0.6-0.1l0,0.8
							c-0.2,0.1-0.5,0.1-0.9,0.1c-0.5,0-0.9-0.2-1.1-0.4c-0.3-0.3-0.4-0.8-0.4-1.5v-3.2h-0.9v-0.8h0.9v-1.4L210.8,296.1z"/>
						<path class="st7" d="M214.6,296.1c0,0.4-0.3,0.6-0.7,0.6c-0.4,0-0.6-0.3-0.6-0.6c0-0.4,0.3-0.7,0.7-0.7
							C214.4,295.5,214.6,295.8,214.6,296.1z M213.5,303.6v-5.8h1.1v5.8H213.5z"/>
						<path class="st7" d="M221.5,300.6c0,2.1-1.5,3.1-2.9,3.1c-1.6,0-2.8-1.2-2.8-3c0-1.9,1.3-3.1,2.9-3.1
							C220.4,297.6,221.5,298.8,221.5,300.6z M216.9,300.7c0,1.3,0.7,2.2,1.8,2.2c1,0,1.8-0.9,1.8-2.3c0-1-0.5-2.2-1.7-2.2
							C217.5,298.4,216.9,299.6,216.9,300.7z"/>
						<path class="st7" d="M222.9,299.3c0-0.6,0-1.1,0-1.6h0.9l0.1,1h0c0.3-0.6,1-1.1,1.9-1.1c0.8,0,2.1,0.5,2.1,2.5v3.5h-1.1v-3.3
							c0-0.9-0.3-1.7-1.3-1.7c-0.7,0-1.2,0.5-1.4,1.1c0,0.1-0.1,0.3-0.1,0.5v3.5h-1.1V299.3z"/>
					</g>
				</g>
			</g>
		</g>
	</g>
</g>
<g>
	<g>
		<g>
			<g>
				<g>
					<g>
						<path class="st7" d="M209.6,140l-0.8,2.5h-1.1l2.7-8.1h1.3l2.8,8.1h-1.1l-0.9-2.5H209.6z M212.2,139.1l-0.8-2.3
							c-0.2-0.5-0.3-1-0.4-1.5h0c-0.1,0.5-0.3,1-0.4,1.5l-0.8,2.3H212.2z"/>
						<path class="st7" d="M215.5,138.6c0-0.7,0-1.3,0-1.9h0.9l0,1h0c0.4-0.7,1.1-1.1,2.1-1.1c1.4,0,2.5,1.2,2.5,3
							c0,2.1-1.3,3.1-2.6,3.1c-0.8,0-1.4-0.3-1.8-0.9h0v3.2h-1V138.6z M216.6,140.1c0,0.2,0,0.3,0,0.4c0.2,0.7,0.8,1.2,1.6,1.2
							c1.1,0,1.8-0.9,1.8-2.2c0-1.2-0.6-2.2-1.7-2.2c-0.7,0-1.4,0.5-1.6,1.3c0,0.1-0.1,0.3-0.1,0.4V140.1z"/>
						<path class="st7" d="M222.4,138.6c0-0.7,0-1.3,0-1.9h0.9l0,1h0c0.4-0.7,1.1-1.1,2.1-1.1c1.4,0,2.5,1.2,2.5,3
							c0,2.1-1.3,3.1-2.6,3.1c-0.8,0-1.4-0.3-1.8-0.9h0v3.2h-1V138.6z M223.4,140.1c0,0.2,0,0.3,0,0.4c0.2,0.7,0.8,1.2,1.6,1.2
							c1.1,0,1.8-0.9,1.8-2.2c0-1.2-0.6-2.2-1.7-2.2c-0.7,0-1.4,0.5-1.6,1.3c0,0.1-0.1,0.3-0.1,0.4V140.1z"/>
						<path class="st7" d="M229.2,138.5c0-0.7,0-1.3,0-1.8h0.9l0,1.1h0c0.3-0.8,0.9-1.3,1.6-1.3c0.1,0,0.2,0,0.3,0v1
							c-0.1,0-0.2,0-0.4,0c-0.7,0-1.3,0.6-1.4,1.4c0,0.1,0,0.3,0,0.5v3.1h-1V138.5z"/>
						<path class="st7" d="M238.2,139.6c0,2.1-1.5,3.1-2.9,3.1c-1.6,0-2.8-1.2-2.8-3c0-1.9,1.3-3.1,2.9-3.1
							C237.1,136.6,238.2,137.8,238.2,139.6z M233.6,139.6c0,1.3,0.7,2.2,1.8,2.2c1,0,1.8-0.9,1.8-2.3c0-1-0.5-2.2-1.7-2.2
							C234.2,137.4,233.6,138.5,233.6,139.6z"/>
						<path class="st7" d="M239.5,142.5c0-0.4,0-1,0-1.5v-7h1v3.6h0c0.4-0.6,1-1.1,2-1.1c1.4,0,2.5,1.2,2.4,3c0,2.1-1.3,3.1-2.6,3.1
							c-0.8,0-1.5-0.3-1.9-1.1h0l0,1H239.5z M240.6,140.2c0,0.1,0,0.3,0,0.4c0.2,0.7,0.8,1.2,1.6,1.2c1.1,0,1.8-0.9,1.8-2.2
							c0-1.2-0.6-2.2-1.7-2.2c-0.7,0-1.4,0.5-1.6,1.3c0,0.1-0.1,0.3-0.1,0.4V140.2z"/>
						<path class="st7" d="M249.6,142.5l-0.1-0.7h0c-0.3,0.5-0.9,0.9-1.8,0.9c-1.2,0-1.8-0.8-1.8-1.7c0-1.4,1.2-2.2,3.5-2.2v-0.1
							c0-0.5-0.1-1.3-1.3-1.3c-0.5,0-1.1,0.2-1.5,0.4l-0.2-0.7c0.5-0.3,1.2-0.5,1.9-0.5c1.8,0,2.2,1.2,2.2,2.4v2.2
							c0,0.5,0,1,0.1,1.4H249.6z M249.5,139.5c-1.2,0-2.5,0.2-2.5,1.3c0,0.7,0.5,1,1,1c0.8,0,1.2-0.5,1.4-1c0-0.1,0.1-0.2,0.1-0.3
							V139.5z"/>
						<path class="st7" d="M253.4,135v1.7h1.5v0.8h-1.5v3.1c0,0.7,0.2,1.1,0.8,1.1c0.3,0,0.5,0,0.6-0.1l0,0.8
							c-0.2,0.1-0.5,0.1-0.9,0.1c-0.5,0-0.9-0.2-1.1-0.4c-0.3-0.3-0.4-0.8-0.4-1.5v-3.2h-0.9v-0.8h0.9v-1.4L253.4,135z"/>
						<path class="st7" d="M257.3,135.1c0,0.4-0.3,0.6-0.7,0.6c-0.4,0-0.6-0.3-0.6-0.6c0-0.4,0.3-0.7,0.7-0.7
							C257,134.4,257.3,134.7,257.3,135.1z M256.1,142.5v-5.8h1.1v5.8H256.1z"/>
						<path class="st7" d="M264.2,139.6c0,2.1-1.5,3.1-2.9,3.1c-1.6,0-2.8-1.2-2.8-3c0-1.9,1.3-3.1,2.9-3.1
							C263,136.6,264.2,137.8,264.2,139.6z M259.6,139.6c0,1.3,0.7,2.2,1.8,2.2c1,0,1.8-0.9,1.8-2.3c0-1-0.5-2.2-1.7-2.2
							C260.1,137.4,259.6,138.5,259.6,139.6z"/>
						<path class="st7" d="M265.5,138.3c0-0.6,0-1.1,0-1.6h0.9l0.1,1h0c0.3-0.6,1-1.1,1.9-1.1c0.8,0,2.1,0.5,2.1,2.5v3.5h-1.1v-3.3
							c0-0.9-0.3-1.7-1.3-1.7c-0.7,0-1.2,0.5-1.4,1.1c0,0.1-0.1,0.3-0.1,0.5v3.5h-1.1V138.3z"/>
					</g>
				</g>
			</g>
		</g>
	</g>
</g>
<g>
	<path class="st23" d="M508.7,136.8c0,21.9,17.8,39.7,39.7,39.7V97.2C526.4,97.2,508.7,114.9,508.7,136.8z"/>
	<path class="st23" d="M588,136.8c0-21.9-17.8-39.7-39.7-39.7v79.4C570.3,176.5,588,158.7,588,136.8z"/>
	<g>
		<g>
			<path class="st4" d="M593.6,136.8c-0.3-21.9-16.1-41.2-38-44.7c-21.6-3.5-43.1,9.5-50.1,30.3c-4.5,13.3-2.3,27.9,5.3,39.6
				c0.8,1.3,2.9,0.1,2.1-1.2c-15.9-24.4-3.7-58.4,25-65.6c27-6.8,53,14.1,53.4,41.6C591.2,138.4,593.6,138.4,593.6,136.8
				L593.6,136.8z"/>
		</g>
	</g>
	<g>
		<path class="st7" d="M511.4,136.8c0-20.4,16.6-37,37-37c20.4,0,37,16.6,37,37s-16.6,37-37,37C528,173.8,511.4,157.2,511.4,136.8z
			 M514.5,136.8c0,18.7,15.2,33.9,33.9,33.9c18.7,0,33.9-15.2,33.9-33.9c0-18.7-15.2-33.9-33.9-33.9
			C529.7,103,514.5,118.2,514.5,136.8z"/>
	</g>
</g>
<circle class="st4" cx="513" cy="163.6" r="3.5"/>
<g>
	<g>
		<g>
			<g>
				<g>
					<g>
						<path class="st7" d="M574.8,296.9c-0.4,0.2-1.2,0.4-2.1,0.4c-2.3,0-4-1.4-4-4.1c0-2.5,1.7-4.2,4.2-4.2c1,0,1.6,0.2,1.9,0.4
							l-0.3,0.9c-0.4-0.2-1-0.3-1.6-0.3c-1.9,0-3.2,1.2-3.2,3.3c0,2,1.1,3.3,3.1,3.3c0.6,0,1.3-0.1,1.7-0.3L574.8,296.9z"/>
						<path class="st7" d="M581.2,294.2c0,2.1-1.5,3.1-2.9,3.1c-1.6,0-2.8-1.2-2.8-3c0-1.9,1.3-3.1,2.9-3.1
							C580.1,291.2,581.2,292.5,581.2,294.2z M576.6,294.3c0,1.3,0.7,2.2,1.8,2.2c1,0,1.8-0.9,1.8-2.3c0-1-0.5-2.2-1.7-2.2
							C577.2,292,576.6,293.2,576.6,294.3z"/>
						<path class="st7" d="M582.6,293c0-0.6,0-1.1,0-1.6h0.9l0.1,1h0c0.3-0.6,1-1.1,1.9-1.1c0.8,0,2.1,0.5,2.1,2.5v3.5h-1.1v-3.3
							c0-0.9-0.3-1.7-1.3-1.7c-0.7,0-1.2,0.5-1.4,1.1c0,0.1-0.1,0.3-0.1,0.5v3.5h-1.1V293z"/>
						<path class="st7" d="M593.4,297c-0.3,0.1-0.9,0.3-1.7,0.3c-1.8,0-2.9-1.2-2.9-3c0-1.8,1.2-3.1,3.1-3.1c0.6,0,1.2,0.2,1.5,0.3
							l-0.2,0.8c-0.3-0.1-0.6-0.3-1.2-0.3c-1.3,0-2.1,1-2.1,2.2c0,1.3,0.9,2.2,2,2.2c0.6,0,1-0.2,1.3-0.3L593.4,297z"/>
						<path class="st7" d="M595.1,294.5c0,1.4,0.9,2,2,2c0.8,0,1.2-0.1,1.6-0.3l0.2,0.8c-0.4,0.2-1,0.4-1.9,0.4
							c-1.8,0-2.9-1.2-2.9-2.9s1-3.1,2.7-3.1c1.9,0,2.4,1.7,2.4,2.7c0,0.2,0,0.4,0,0.5H595.1z M598.2,293.7c0-0.7-0.3-1.7-1.5-1.7
							c-1.1,0-1.5,1-1.6,1.7H598.2z"/>
						<path class="st7" d="M600.5,293.3c0-0.7,0-1.3,0-1.9h0.9l0,1h0c0.4-0.7,1.1-1.1,2.1-1.1c1.4,0,2.5,1.2,2.5,3
							c0,2.1-1.3,3.1-2.6,3.1c-0.8,0-1.4-0.3-1.8-0.9h0v3.2h-1V293.3z M601.6,294.8c0,0.2,0,0.3,0,0.4c0.2,0.7,0.8,1.2,1.6,1.2
							c1.1,0,1.8-0.9,1.8-2.2c0-1.2-0.6-2.2-1.7-2.2c-0.7,0-1.4,0.5-1.6,1.3c0,0.1-0.1,0.3-0.1,0.4V294.8z"/>
						<path class="st7" d="M608.6,289.7v1.7h1.5v0.8h-1.5v3.1c0,0.7,0.2,1.1,0.8,1.1c0.3,0,0.5,0,0.6-0.1l0,0.8
							c-0.2,0.1-0.5,0.1-0.9,0.1c-0.5,0-0.9-0.2-1.1-0.4c-0.3-0.3-0.4-0.8-0.4-1.5v-3.2h-0.9v-0.8h0.9V290L608.6,289.7z"/>
						<path class="st7" d="M612.5,289.7c0,0.4-0.3,0.6-0.7,0.6c-0.4,0-0.6-0.3-0.6-0.6c0-0.4,0.3-0.7,0.7-0.7
							C612.3,289.1,612.5,289.4,612.5,289.7z M611.3,297.2v-5.8h1.1v5.8H611.3z"/>
						<path class="st7" d="M619.4,294.2c0,2.1-1.5,3.1-2.9,3.1c-1.6,0-2.8-1.2-2.8-3c0-1.9,1.3-3.1,2.9-3.1
							C618.3,291.2,619.4,292.5,619.4,294.2z M614.8,294.3c0,1.3,0.7,2.2,1.8,2.2c1,0,1.8-0.9,1.8-2.3c0-1-0.5-2.2-1.7-2.2
							C615.3,292,614.8,293.2,614.8,294.3z"/>
						<path class="st7" d="M620.7,293c0-0.6,0-1.1,0-1.6h0.9l0.1,1h0c0.3-0.6,1-1.1,1.9-1.1c0.8,0,2.1,0.5,2.1,2.5v3.5h-1.1v-3.3
							c0-0.9-0.3-1.7-1.3-1.7c-0.7,0-1.2,0.5-1.4,1.1c0,0.1-0.1,0.3-0.1,0.5v3.5h-1.1V293z"/>
					</g>
				</g>
			</g>
		</g>
	</g>
</g>
<g>
	<g>
		<g>
			<g>
				<g>
					<g>
						<path class="st7" d="M524,132.3c0.5-0.1,1.3-0.2,2-0.2c1.1,0,1.8,0.2,2.3,0.7c0.4,0.4,0.6,0.9,0.6,1.5c0,1.1-0.7,1.8-1.5,2.1
							v0c0.6,0.2,1,0.8,1.2,1.6c0.3,1.1,0.5,1.9,0.6,2.2h-1.1c-0.1-0.2-0.3-0.9-0.5-1.9c-0.2-1.1-0.7-1.5-1.6-1.6h-1v3.5h-1V132.3z
							 M525,136h1.1c1.1,0,1.8-0.6,1.8-1.5c0-1-0.8-1.5-1.9-1.5c-0.5,0-0.9,0-1,0.1V136z"/>
						<path class="st7" d="M531,137.6c0,1.4,0.9,2,2,2c0.8,0,1.2-0.1,1.6-0.3l0.2,0.8c-0.4,0.2-1,0.4-1.9,0.4
							c-1.8,0-2.9-1.2-2.9-2.9s1-3.1,2.7-3.1c1.9,0,2.4,1.7,2.4,2.7c0,0.2,0,0.4,0,0.5H531z M534.1,136.8c0-0.7-0.3-1.7-1.5-1.7
							c-1.1,0-1.5,1-1.6,1.7H534.1z"/>
						<path class="st7" d="M540.6,140.1c-0.3,0.1-0.9,0.3-1.7,0.3c-1.8,0-2.9-1.2-2.9-3c0-1.8,1.2-3.1,3.1-3.1
							c0.6,0,1.2,0.2,1.5,0.3l-0.2,0.8c-0.3-0.1-0.6-0.3-1.2-0.3c-1.3,0-2.1,1-2.1,2.2c0,1.3,0.9,2.2,2,2.2c0.6,0,1-0.2,1.3-0.3
							L540.6,140.1z"/>
						<path class="st7" d="M541.8,131.8h1.1v3.6h0c0.2-0.3,0.4-0.6,0.8-0.7c0.3-0.2,0.7-0.3,1.1-0.3c0.8,0,2,0.5,2,2.5v3.5h-1.1V137
							c0-0.9-0.3-1.7-1.3-1.7c-0.7,0-1.2,0.5-1.4,1.1c-0.1,0.1-0.1,0.3-0.1,0.5v3.5h-1.1V131.8z"/>
						<path class="st7" d="M549.1,137.6c0,1.4,0.9,2,2,2c0.8,0,1.2-0.1,1.6-0.3l0.2,0.8c-0.4,0.2-1,0.4-1.9,0.4
							c-1.8,0-2.9-1.2-2.9-2.9s1-3.1,2.7-3.1c1.9,0,2.4,1.7,2.4,2.7c0,0.2,0,0.4,0,0.5H549.1z M552.2,136.8c0-0.7-0.3-1.7-1.5-1.7
							c-1.1,0-1.5,1-1.6,1.7H552.2z"/>
						<path class="st7" d="M554.5,136.3c0-0.7,0-1.3,0-1.8h0.9l0,1.1h0c0.3-0.8,0.9-1.3,1.6-1.3c0.1,0,0.2,0,0.3,0v1
							c-0.1,0-0.2,0-0.4,0c-0.7,0-1.3,0.6-1.4,1.4c0,0.1,0,0.3,0,0.5v3.1h-1V136.3z"/>
						<path class="st7" d="M562.4,140.1c-0.3,0.1-0.9,0.3-1.7,0.3c-1.8,0-2.9-1.2-2.9-3c0-1.8,1.2-3.1,3.1-3.1
							c0.6,0,1.2,0.2,1.5,0.3l-0.2,0.8c-0.3-0.1-0.6-0.3-1.2-0.3c-1.3,0-2.1,1-2.1,2.2c0,1.3,0.9,2.2,2,2.2c0.6,0,1-0.2,1.3-0.3
							L562.4,140.1z"/>
						<path class="st7" d="M563.7,131.8h1.1v3.6h0c0.2-0.3,0.4-0.6,0.8-0.7c0.3-0.2,0.7-0.3,1.1-0.3c0.8,0,2,0.5,2,2.5v3.5h-1.1V137
							c0-0.9-0.3-1.7-1.3-1.7c-0.7,0-1.2,0.5-1.4,1.1c-0.1,0.1-0.1,0.3-0.1,0.5v3.5h-1.1V131.8z"/>
						<path class="st7" d="M570.9,137.6c0,1.4,0.9,2,2,2c0.8,0,1.2-0.1,1.6-0.3l0.2,0.8c-0.4,0.2-1,0.4-1.9,0.4
							c-1.8,0-2.9-1.2-2.9-2.9s1-3.1,2.7-3.1c1.9,0,2.4,1.7,2.4,2.7c0,0.2,0,0.4,0,0.5H570.9z M574,136.8c0-0.7-0.3-1.7-1.5-1.7
							c-1.1,0-1.5,1-1.6,1.7H574z"/>
					</g>
				</g>
			</g>
		</g>
	</g>
</g>
<g>
	<g>
		<path class="st7" d="M385.8,78.7v9.8h-1.3v-9.8H385.8z"/>
		<path class="st7" d="M394.1,78.2v8.5c0,0.6,0,1.3,0.1,1.8H393l-0.1-1.2h0c-0.4,0.8-1.2,1.4-2.4,1.4c-1.7,0-3-1.4-3-3.6
			c0-2.3,1.4-3.8,3.2-3.8c1.1,0,1.8,0.5,2.1,1.1h0v-4.2H394.1z M392.8,84.4c0-0.2,0-0.4-0.1-0.5c-0.2-0.8-0.9-1.5-1.8-1.5
			c-1.3,0-2.1,1.2-2.1,2.7c0,1.4,0.7,2.6,2.1,2.6c0.9,0,1.6-0.6,1.9-1.5c0-0.2,0.1-0.3,0.1-0.6V84.4z"/>
		<path class="st7" d="M396.9,85.3c0,1.7,1.1,2.4,2.4,2.4c0.9,0,1.5-0.2,1.9-0.4l0.2,0.9c-0.5,0.2-1.2,0.4-2.3,0.4
			c-2.2,0-3.5-1.4-3.5-3.5c0-2.1,1.2-3.8,3.3-3.8c2.3,0,2.9,2,2.9,3.3c0,0.3,0,0.5,0,0.6H396.9z M400.7,84.3c0-0.8-0.3-2.1-1.8-2.1
			c-1.3,0-1.9,1.2-2,2.1H400.7z M401,78.5l-1.8,2.1h-0.9l1.3-2.1H401z"/>
		<path class="st7" d="M404.2,85.3c0,1.7,1.1,2.4,2.4,2.4c0.9,0,1.5-0.2,1.9-0.4l0.2,0.9c-0.5,0.2-1.2,0.4-2.3,0.4
			c-2.2,0-3.5-1.4-3.5-3.5c0-2.1,1.3-3.8,3.3-3.8c2.3,0,2.9,2,2.9,3.3c0,0.3,0,0.5,0,0.6H404.2z M407.9,84.3c0-0.8-0.3-2.1-1.8-2.1
			c-1.3,0-1.9,1.2-2,2.1H407.9z"/>
	</g>
</g>
<g>
	<path class="st7" d="M367.3,275.6h7.1v1.7h-8.9v-13.9h1.9V275.6z"/>
	<path class="st7" d="M384.6,274.1c-0.1,0.5-0.5,1.9-1.8,2.8c-0.5,0.3-1.1,0.7-2.8,0.7c-2.9,0-4.5-2.2-4.5-5.1
		c0-3.1,1.5-5.6,4.9-5.6c2.9,0,4.4,2.3,4.4,5.9h-7.4c0,2.1,1,3.3,2.9,3.3c1.6,0,2.6-1.2,2.6-2H384.6z M383,271.4
		c-0.1-1.6-0.8-3-2.8-3c-1.6,0-2.8,1.5-2.8,3H383z"/>
	<path class="st7" d="M398.5,270.6c-0.2-1.4-1-2.2-2.4-2.2c-2.1,0-2.8,2-2.8,3.8c0,1.7,0.4,3.9,2.8,3.9c1.1,0,2.1-0.9,2.4-2.4h1.6
		c-0.2,1.6-1.2,3.9-4.1,3.9c-2.9,0-4.5-2.2-4.5-5.1c0-3.1,1.5-5.6,4.9-5.6c2.7,0,3.7,1.9,3.8,3.7H398.5z"/>
	<path class="st7" d="M408.2,267.2h1.9c-1.2,3.3-2.3,6.6-3.6,9.9c-1.6,4.1-1.8,4.3-4,4.3c-0.3,0-0.4-0.1-0.7-0.2v-1.6
		c0.2,0.1,0.6,0.2,1,0.2c0.9,0,1-0.3,1.8-2.3l-3.8-10.4h1.9l2.7,8.3h0L408.2,267.2z"/>
	<path class="st7" d="M417.9,270.6c-0.2-1.4-1-2.2-2.4-2.2c-2.1,0-2.8,2-2.8,3.8c0,1.7,0.4,3.9,2.8,3.9c1.1,0,2.1-0.9,2.4-2.4h1.6
		c-0.2,1.6-1.2,3.9-4.1,3.9c-2.9,0-4.5-2.2-4.5-5.1c0-3.1,1.5-5.6,4.9-5.6c2.7,0,3.7,1.9,3.8,3.7H417.9z"/>
	<path class="st7" d="M423,277.3h-1.7v-13.9h1.7V277.3z"/>
	<path class="st7" d="M434.2,274.1c-0.1,0.5-0.5,1.9-1.8,2.8c-0.5,0.3-1.1,0.7-2.8,0.7c-2.9,0-4.5-2.2-4.5-5.1
		c0-3.1,1.5-5.6,4.9-5.6c2.9,0,4.4,2.3,4.4,5.9h-7.4c0,2.1,1,3.3,2.9,3.3c1.6,0,2.6-1.2,2.6-2H434.2z M432.6,271.4
		c-0.1-1.6-0.8-3-2.8-3c-1.6,0-2.8,1.5-2.8,3H432.6z"/>
	<path class="st7" d="M383.4,300.6h-1.6v-1.4h0c-0.7,1.4-1.9,1.7-2.9,1.7c-3.5,0-4.5-3.2-4.5-5.7c0-2.9,1.5-5.1,4.2-5.1
		c1.8,0,2.6,1.1,3,1.7l0-0.1v-5.1h1.7V300.6z M378.9,299.4c1.1,0,2.8-0.7,2.8-3.4c0-1.6-0.3-4.3-2.7-4.3c-2.6,0-2.8,2.5-2.8,3.8
		C376.1,297.7,377,299.4,378.9,299.4z"/>
	<path class="st7" d="M394.3,297.4c-0.1,0.5-0.5,1.9-1.8,2.8c-0.5,0.3-1.1,0.7-2.8,0.7c-2.9,0-4.5-2.2-4.5-5.1
		c0-3.1,1.5-5.6,4.9-5.6c2.9,0,4.4,2.3,4.4,5.9h-7.4c0,2.1,1,3.3,2.9,3.3c1.6,0,2.6-1.2,2.6-2H394.3z M392.7,294.7
		c-0.1-1.6-0.8-3-2.8-3c-1.6,0-2.8,1.5-2.8,3H392.7z"/>
	<path class="st7" d="M408.3,290.4h1.9l-3.9,10.1h-1.8l-3.7-10.1h2l2.6,8.3h0L408.3,290.4z"/>
	<path class="st7" d="M411.6,288.6v-1.9h1.7v1.9H411.6z M413.3,300.6h-1.7v-10.1h1.7V300.6z"/>
	<path class="st7" d="M424.5,297.4c-0.1,0.5-0.5,1.9-1.8,2.8c-0.5,0.3-1.1,0.7-2.8,0.7c-2.9,0-4.5-2.2-4.5-5.1
		c0-3.1,1.5-5.6,4.9-5.6c2.9,0,4.4,2.3,4.4,5.9h-7.4c0,2.1,1,3.3,2.9,3.3c1.6,0,2.6-1.2,2.6-2H424.5z M422.9,294.7
		c-0.1-1.6-0.8-3-2.8-3c-1.6,0-2.8,1.5-2.8,3H422.9z"/>
	<path class="st7" d="M359.1,323.8h-1.6v-1.4h0c-0.7,1.4-1.9,1.7-2.9,1.7c-3.5,0-4.5-3.2-4.5-5.7c0-2.9,1.5-5.1,4.2-5.1
		c1.8,0,2.6,1.1,3,1.7l0-0.1v-5.1h1.7V323.8z M354.6,322.7c1.1,0,2.8-0.7,2.8-3.4c0-1.6-0.3-4.3-2.7-4.3c-2.6,0-2.8,2.5-2.8,3.8
		C351.9,321,352.8,322.7,354.6,322.7z"/>
	<path class="st7" d="M370.1,320.7c-0.1,0.5-0.5,1.9-1.8,2.8c-0.5,0.3-1.1,0.7-2.8,0.7c-2.9,0-4.5-2.2-4.5-5.1
		c0-3.1,1.5-5.6,4.9-5.6c2.9,0,4.4,2.3,4.4,5.9h-7.4c0,2.1,1,3.3,2.9,3.3c1.6,0,2.6-1.2,2.6-2H370.1z M368.5,318
		c-0.1-1.6-0.8-3-2.8-3c-1.6,0-2.8,1.5-2.8,3H368.5z"/>
	<path class="st7" d="M378,316.6c0-0.6-0.3-1.7-2.4-1.7c-0.5,0-2,0.2-2,1.4c0,0.8,0.5,1,1.8,1.4l1.7,0.4c2.1,0.5,2.9,1.3,2.9,2.7
		c0,2.1-1.7,3.4-4,3.4c-4,0-4.3-2.3-4.4-3.5h1.6c0.1,0.8,0.3,2.1,2.7,2.1c1.2,0,2.3-0.5,2.3-1.6c0-0.8-0.6-1.1-2-1.5l-2-0.5
		c-1.4-0.3-2.3-1.1-2.3-2.5c0-2.2,1.8-3.2,3.8-3.2c3.6,0,3.9,2.7,3.9,3.2H378z"/>
	<path class="st7" d="M387.2,313.7h1.6v1.4h0c0.4-0.6,1.2-1.7,3-1.7c2.7,0,4.2,2.2,4.2,5.1c0,2.4-1,5.7-4.5,5.7
		c-1.4,0-2.2-0.6-2.7-1.4h0v5.1h-1.7V313.7z M391.6,322.7c1.9,0,2.7-1.7,2.7-3.9c0-1.3-0.1-3.8-2.8-3.8c-2.5,0-2.7,2.7-2.7,4.3
		C388.8,321.9,390.5,322.7,391.6,322.7z"/>
	<path class="st7" d="M400.1,323.8h-1.7v-10.1h1.6v1.7h0c0.7-1.2,1.6-2,2.9-2c0.2,0,0.3,0,0.4,0.1v1.8h-0.6c-1.6,0-2.6,1.2-2.6,2.7
		V323.8z"/>
	<path class="st7" d="M408.7,313.4c3.2,0,4.7,2.7,4.7,5.4s-1.5,5.4-4.7,5.4c-3.2,0-4.7-2.7-4.7-5.4S405.5,313.4,408.7,313.4z
		 M408.7,322.6c2.4,0,2.9-2.5,2.9-3.9s-0.5-3.9-2.9-3.9s-2.9,2.5-2.9,3.9S406.3,322.6,408.7,322.6z"/>
	<path class="st7" d="M423.8,323.8h-1.6v-1.4h0c-0.7,1.4-1.9,1.7-2.9,1.7c-3.5,0-4.5-3.2-4.5-5.7c0-2.9,1.5-5.1,4.2-5.1
		c1.8,0,2.6,1.1,3,1.7l0-0.1v-5.1h1.7V323.8z M419.3,322.7c1.1,0,2.8-0.7,2.8-3.4c0-1.6-0.3-4.3-2.7-4.3c-2.6,0-2.8,2.5-2.8,3.8
		C416.5,321,417.4,322.7,419.3,322.7z"/>
	<path class="st7" d="M432.7,323.8v-1.5l0,0c-0.7,1.2-1.6,1.8-3.2,1.8c-1.5,0-3.3-0.7-3.3-3.1v-7.3h1.7v6.7c0,1.7,0.9,2.2,2,2.2
		c2.2,0,2.8-1.9,2.8-3.4v-5.6h1.7v10.1H432.7z"/>
	<path class="st7" d="M437,311.9v-1.9h1.7v1.9H437z M438.7,323.8H437v-10.1h1.7V323.8z"/>
	<path class="st7" d="M443.3,315.1v6.6c0,0.8,0.7,0.8,1,0.8h0.6v1.3c-0.6,0.1-1.1,0.1-1.3,0.1c-1.7,0-2.1-1-2.1-2.2v-6.7h-1.4v-1.4
		h1.4v-2.8h1.7v2.8h1.6v1.4H443.3z"/>
	<path class="st7" d="M452.4,316.6c0-0.6-0.3-1.7-2.4-1.7c-0.5,0-2,0.2-2,1.4c0,0.8,0.5,1,1.8,1.4l1.7,0.4c2.1,0.5,2.9,1.3,2.9,2.7
		c0,2.1-1.7,3.4-4,3.4c-4,0-4.3-2.3-4.4-3.5h1.6c0.1,0.8,0.3,2.1,2.7,2.1c1.2,0,2.3-0.5,2.3-1.6c0-0.8-0.6-1.1-2-1.5l-2-0.5
		c-1.4-0.3-2.3-1.1-2.3-2.5c0-2.2,1.8-3.2,3.8-3.2c3.6,0,3.9,2.7,3.9,3.2H452.4z"/>
</g>
</svg>
